<?xml version="1.0" encoding="UTF-8"?> <svg xmlns="http://www.w3.org/2000/svg" width="618" height="234" viewBox="0 0 618 234" fill="none"> <g clip-path="url(#clip0_2414_31)"> <g clip-path="url(#clip1_2414_31)" filter="url(#filter0_d_2414_31)"> <rect width="671.329" height="55" transform="translate(-13.9838 238.189) rotate(-15)" fill="#FFD42A"></rect> <path d="M-160.237 313.391C-161.615 313.761 -162.944 313.799 -164.223 313.507C-165.493 313.198 -166.591 312.602 -167.518 311.719C-168.436 310.819 -169.074 309.699 -169.433 308.36C-169.792 307.02 -169.797 305.738 -169.449 304.513C-169.092 303.272 -168.438 302.206 -167.49 301.317C-166.531 300.411 -165.357 299.772 -163.966 299.4C-162.794 299.086 -161.682 299.009 -160.632 299.169C-159.568 299.326 -158.611 299.704 -157.76 300.304L-159.272 302.697C-160.47 301.886 -161.745 301.662 -163.097 302.024C-163.934 302.248 -164.631 302.635 -165.188 303.185C-165.748 303.721 -166.127 304.368 -166.324 305.125C-166.509 305.879 -166.489 306.674 -166.265 307.511C-166.04 308.348 -165.66 309.047 -165.123 309.607C-164.574 310.164 -163.921 310.541 -163.164 310.738C-162.41 310.923 -161.615 310.903 -160.778 310.679C-159.426 310.316 -158.435 309.478 -157.807 308.164L-155.301 309.481C-155.735 310.439 -156.373 311.252 -157.215 311.919C-158.058 312.587 -159.065 313.077 -160.237 313.391ZM-149.611 298.99C-148.645 298.731 -147.709 298.722 -146.802 298.962C-145.886 299.186 -145.094 299.644 -144.426 300.334C-143.762 301.012 -143.286 301.885 -143 302.954C-142.713 304.023 -142.687 305.024 -142.92 305.956C-143.157 306.875 -143.614 307.667 -144.292 308.332C-144.96 308.98 -145.777 309.434 -146.743 309.693C-148.07 310.048 -149.225 309.909 -150.209 309.276L-148.91 314.125L-151.924 314.932L-155.713 300.791L-152.834 300.02L-152.513 301.217C-152.008 300.116 -151.04 299.373 -149.611 298.99ZM-147.927 307.36C-147.155 307.153 -146.592 306.726 -146.241 306.08C-145.88 305.417 -145.817 304.648 -146.052 303.772C-146.287 302.896 -146.724 302.268 -147.364 301.888C-147.995 301.491 -148.697 301.396 -149.47 301.603C-150.243 301.81 -150.809 302.245 -151.17 302.907C-151.522 303.554 -151.58 304.315 -151.345 305.19C-151.111 306.066 -150.678 306.703 -150.047 307.099C-149.407 307.48 -148.7 307.567 -147.927 307.36ZM-134.585 306.435C-135.68 306.728 -136.726 306.767 -137.722 306.551C-138.709 306.318 -139.556 305.862 -140.263 305.182C-140.97 304.502 -141.461 303.646 -141.737 302.616C-142.013 301.586 -142.016 300.599 -141.744 299.657C-141.472 298.714 -140.964 297.902 -140.222 297.22C-139.471 296.522 -138.548 296.026 -137.453 295.733C-136.358 295.439 -135.317 295.409 -134.33 295.641C-133.347 295.861 -132.501 296.311 -131.794 296.991C-131.088 297.671 -130.596 298.527 -130.32 299.557C-130.044 300.587 -130.042 301.574 -130.314 302.516C-130.586 303.459 -131.091 304.277 -131.83 304.972C-132.572 305.654 -133.491 306.142 -134.585 306.435ZM-135.248 303.962C-134.475 303.755 -133.913 303.329 -133.562 302.682C-133.201 302.02 -133.138 301.25 -133.372 300.375C-133.607 299.499 -134.045 298.871 -134.685 298.49C-135.316 298.093 -136.018 297.998 -136.79 298.205C-137.563 298.412 -138.13 298.847 -138.491 299.51C-138.855 300.16 -138.92 300.922 -138.685 301.798C-138.45 302.674 -138.011 303.309 -137.367 303.702C-136.727 304.083 -136.021 304.169 -135.248 303.962ZM-120.29 291.299L-117.505 301.693L-120.518 302.5L-121.554 298.637C-122.312 299.309 -123.219 299.787 -124.275 300.07C-125.679 300.446 -126.826 300.415 -127.717 299.977C-128.598 299.523 -129.217 298.626 -129.576 297.287L-130.451 294.022L-127.437 293.215L-126.614 296.286C-126.445 296.917 -126.162 297.331 -125.764 297.528C-125.353 297.722 -124.839 297.736 -124.22 297.57C-123.435 297.36 -122.739 296.994 -122.133 296.473L-123.303 292.107L-120.29 291.299ZM-117.396 290.524L-114.402 289.722L-113.315 293.779L-108.794 292.567L-109.881 288.51L-106.867 287.703L-104.082 298.096L-107.096 298.904L-108.137 295.021L-112.657 296.232L-111.617 300.115L-114.611 300.917L-117.396 290.524ZM-96.2878 296.173C-97.3825 296.467 -98.4282 296.505 -99.4247 296.289C-100.412 296.057 -101.259 295.6 -101.966 294.92C-102.672 294.24 -103.164 293.385 -103.44 292.354C-103.716 291.324 -103.718 290.338 -103.446 289.395C-103.174 288.453 -102.667 287.64 -101.925 286.958C-101.173 286.26 -100.25 285.764 -99.1555 285.471C-98.0608 285.178 -97.0199 285.147 -96.0328 285.38C-95.0491 285.599 -94.2038 286.049 -93.497 286.729C-92.7902 287.409 -92.2988 288.265 -92.0227 289.295C-91.7466 290.325 -91.7446 291.312 -92.0166 292.254C-92.2886 293.197 -92.7939 294.015 -93.5326 294.71C-94.2747 295.392 -95.1931 295.88 -96.2878 296.173ZM-96.9504 293.701C-96.1776 293.493 -95.6156 293.067 -95.2642 292.421C-94.9034 291.758 -94.8404 290.989 -95.075 290.113C-95.3097 289.237 -95.7472 288.609 -96.3875 288.228C-97.0184 287.831 -97.7202 287.737 -98.4929 287.944C-99.2657 288.151 -99.8325 288.586 -100.193 289.248C-100.557 289.898 -100.622 290.661 -100.388 291.536C-100.153 292.412 -99.7137 293.047 -99.07 293.44C-98.4297 293.821 -97.7231 293.908 -96.9504 293.701ZM-92.6252 280.532L-89.032 279.57L-87.2653 288.559L-89.6608 289.201L-92.6252 280.532ZM-87.1637 293.729C-87.6918 293.87 -88.181 293.822 -88.6313 293.583C-89.0722 293.329 -89.3582 292.957 -89.4894 292.467C-89.6205 291.978 -89.5553 291.526 -89.2939 291.111C-89.0359 290.683 -88.6364 290.396 -88.0955 290.251C-87.5546 290.106 -87.0654 290.155 -86.6279 290.396C-86.1939 290.625 -85.9113 290.984 -85.7802 291.474C-85.6491 291.963 -85.7172 292.43 -85.9847 292.874C-86.2427 293.302 -86.6357 293.587 -87.1637 293.729ZM-70.7558 289.415C-72.1596 289.791 -73.5093 289.828 -74.8048 289.527C-76.0875 289.222 -77.1923 288.627 -78.1192 287.744C-79.0367 286.844 -79.6732 285.731 -80.0286 284.404C-80.3841 283.078 -80.3878 281.802 -80.0397 280.577C-79.6821 279.335 -79.0242 278.262 -78.066 277.356C-77.0948 276.447 -75.9073 275.804 -74.5035 275.428C-73.0997 275.052 -71.7564 275.017 -70.4738 275.322C-69.1911 275.627 -68.0846 276.227 -67.1542 277.124C-66.2273 278.007 -65.5861 279.112 -65.2307 280.439C-64.8752 281.766 -64.8762 283.05 -65.2338 284.291C-65.5947 285.52 -66.2544 286.587 -67.2127 287.492C-68.1709 288.398 -69.352 289.039 -70.7558 289.415ZM-71.4701 286.749C-70.6716 286.535 -69.9987 286.161 -69.4514 285.628C-68.9075 285.082 -68.5433 284.432 -68.3587 283.679C-68.1612 282.922 -68.1746 282.125 -68.3989 281.288C-68.6232 280.451 -69.0101 279.754 -69.5596 279.197C-70.0962 278.637 -70.7348 278.263 -71.4754 278.075C-72.2194 277.874 -72.9907 277.88 -73.7892 278.094C-74.5877 278.308 -75.2588 278.688 -75.8027 279.234C-76.35 279.767 -76.7224 280.412 -76.9199 281.169C-77.1046 281.923 -77.0847 282.718 -76.8604 283.555C-76.6361 284.392 -76.2556 285.091 -75.719 285.651C-75.1695 286.208 -74.5228 286.587 -73.7787 286.788C-73.0382 286.976 -72.2686 286.963 -71.4701 286.749ZM-52.3009 279.997L-53.7498 280.386L-52.6938 284.327L-55.6689 285.124L-56.7249 281.183L-58.1737 281.571L-59.3201 286.102L-62.8747 287.055L-61.0489 280.809L-65.4278 276.599L-62.2402 275.745L-58.8594 279.167L-57.3719 278.768L-58.4538 274.73L-55.4787 273.933L-54.3969 277.971L-52.9286 277.577L-51.6923 272.919L-48.5047 272.065L-50.1919 277.9L-45.4687 282.391L-49.0426 283.348L-52.3009 279.997ZM-46.6871 271.578L-43.6928 270.775L-42.0363 276.957L-38.6313 269.419L-35.8688 268.679L-33.0839 279.072L-36.0782 279.875L-37.7347 273.693L-41.1204 281.226L-43.9022 281.971L-46.6871 271.578ZM-19.2004 272.702L-17.9373 277.416L-20.7385 278.166L-21.339 275.925L-28.6414 277.882L-28.0409 280.123L-30.8421 280.873L-32.1051 276.16L-31.6801 276.046C-31.0396 275.86 -30.6971 275.361 -30.6525 274.549C-30.608 273.736 -30.7382 272.632 -31.043 271.237L-31.8706 267.608L-22.8102 265.18L-20.6879 273.1L-19.2004 272.702ZM-28.2622 270.72C-28.0178 271.786 -27.8703 272.671 -27.8197 273.376C-27.7561 274.076 -27.8452 274.646 -28.0869 275.083L-23.7016 273.908L-25.1613 268.46L-28.5614 269.371L-28.2622 270.72ZM-15.43 263.037C-13.8201 262.605 -12.4802 262.66 -11.4102 263.202C-10.3437 263.731 -9.60344 264.768 -9.18933 266.313L-7.60018 272.244L-10.4207 273L-10.7675 271.705C-11.0754 272.823 -12.002 273.589 -13.5475 274.003C-14.346 274.217 -15.0777 274.268 -15.7426 274.156C-16.3946 274.041 -16.939 273.787 -17.3758 273.393C-17.8126 272.999 -18.1121 272.5 -18.2743 271.895C-18.5331 270.929 -18.3761 270.072 -17.8033 269.325C-17.2175 268.575 -16.1648 267.996 -14.6451 267.589L-12.2496 266.947C-12.4256 266.29 -12.7598 265.841 -13.2522 265.6C-13.7481 265.347 -14.3953 265.327 -15.1938 265.541C-15.7476 265.689 -16.2708 265.926 -16.7634 266.251C-17.2466 266.56 -17.6352 266.913 -17.9293 267.309L-19.5754 265.493C-19.1157 264.942 -18.5224 264.452 -17.7954 264.022C-17.0556 263.59 -16.2671 263.261 -15.43 263.037ZM-13.3376 271.773C-12.8224 271.635 -12.3963 271.396 -12.0592 271.058C-11.7255 270.706 -11.537 270.276 -11.4939 269.767L-11.7786 268.705L-13.8456 269.259C-15.082 269.59 -15.5915 270.161 -15.3741 270.973C-15.2706 271.359 -15.0396 271.628 -14.6813 271.781C-14.3135 271.917 -13.8656 271.914 -13.3376 271.773ZM3.73928 263.677C3.74963 263.716 3.80278 263.991 3.89873 264.504L-3.96391 266.611C-3.64969 267.217 -3.17853 267.636 -2.55041 267.868C-1.9223 268.1 -1.21543 268.111 -0.429808 267.9C0.11111 267.755 0.566928 267.55 0.937645 267.285C1.31779 267.004 1.64158 266.641 1.90902 266.197L3.97833 267.506C3.29976 268.888 2.0203 269.832 0.139966 270.336C-1.03202 270.65 -2.12918 270.702 -3.15149 270.493C-4.17725 270.271 -5.04354 269.82 -5.75035 269.139C-6.45716 268.459 -6.9486 267.604 -7.22468 266.573C-7.4973 265.556 -7.50405 264.578 -7.24494 263.639C-6.97639 262.683 -6.48395 261.868 -5.76759 261.193C-5.04181 260.502 -4.15732 260.016 -3.11412 259.737C-2.09668 259.464 -1.11716 259.436 -0.175575 259.653C0.766013 259.87 1.57906 260.329 2.26356 261.029C2.95749 261.713 3.4494 262.595 3.73928 263.677ZM-2.48399 262.011C-3.16658 262.194 -3.68793 262.541 -4.04805 263.051C-4.40816 263.562 -4.55001 264.166 -4.4736 264.863L0.645811 263.491C0.366781 262.862 -0.0563194 262.417 -0.623492 262.154C-1.19411 261.879 -1.81428 261.832 -2.48399 262.011ZM13.6826 258.052L10.1667 258.994L12.289 266.915L9.29462 267.717L7.1723 259.796L3.65633 260.738L2.99376 258.266L13.0201 255.579L13.6826 258.052ZM21.9645 264.488C20.8569 264.784 19.7983 264.827 18.7889 264.614C17.7889 264.385 16.9291 263.932 16.2094 263.255C15.5026 262.575 15.0111 261.72 14.735 260.689C14.459 259.659 14.4569 258.673 14.7289 257.73C15.0138 256.784 15.5337 255.968 16.2887 255.283C17.0531 254.581 17.9891 254.082 19.0967 253.785C20.1915 253.492 21.2066 253.468 22.1422 253.715C23.0873 253.945 23.8604 254.434 24.4617 255.184L22.4606 257.066C21.6643 256.258 20.7574 255.991 19.74 256.263C18.9544 256.474 18.373 256.906 17.9959 257.559C17.6188 258.212 17.5493 258.983 17.7874 259.872C18.0255 260.76 18.4711 261.393 19.1243 261.77C19.7775 262.147 20.4969 262.231 21.2826 262.02C22.3129 261.744 22.9644 261.059 23.2371 259.964L25.9162 260.613C25.7636 261.537 25.3373 262.342 24.6372 263.026C23.9501 263.707 23.0592 264.194 21.9645 264.488ZM34.5954 249.798L37.3803 260.191L34.695 260.911L33.8978 257.936L31.6762 258.531L30.5029 262.034L27.296 262.893L28.7611 258.857C27.964 258.767 27.3015 258.509 26.7736 258.085C26.2552 257.644 25.8942 257.044 25.6906 256.284C25.3627 255.06 25.5487 254.003 26.2485 253.111C26.9577 252.203 28.085 251.542 29.6305 251.128L34.5954 249.798ZM30.3459 253.566C29.7019 253.739 29.2436 253.986 28.9708 254.307C28.711 254.626 28.6501 255.042 28.7881 255.557C28.9261 256.072 29.1825 256.411 29.5572 256.573C29.9413 256.718 30.4553 256.705 31.0992 256.532L33.3595 255.927L32.5675 252.971L30.3459 253.566ZM49.0454 245.761C50.0114 245.502 50.9475 245.492 51.8539 245.733C52.7697 245.957 53.5617 246.414 54.2299 247.104C54.8946 247.782 55.3702 248.656 55.6566 249.724C55.9431 250.793 55.9696 251.794 55.7362 252.726C55.4994 253.645 55.0422 254.437 54.3645 255.102C53.6962 255.751 52.8791 256.204 51.9131 256.463C50.5866 256.818 49.4312 256.679 48.4471 256.046L49.7463 260.895L46.7327 261.702L42.9435 247.561L45.822 246.79L46.1429 247.988C46.6484 246.886 47.6159 246.144 49.0454 245.761ZM50.729 254.13C51.5017 253.923 52.0638 253.496 52.4151 252.85C52.7759 252.187 52.839 251.418 52.6043 250.542C52.3697 249.667 51.9322 249.038 51.2918 248.658C50.661 248.261 49.9591 248.166 49.1864 248.373C48.4137 248.58 47.8469 249.015 47.4861 249.678C47.1347 250.324 47.0764 251.085 47.311 251.961C47.5457 252.836 47.9785 253.473 48.6094 253.87C49.2497 254.25 49.9562 254.337 50.729 254.13ZM64.071 253.205C62.9763 253.499 61.9306 253.537 60.9341 253.321C59.9469 253.089 59.1 252.632 58.3932 251.952C57.6864 251.272 57.1949 250.417 56.9188 249.386C56.6428 248.356 56.6407 247.37 56.9127 246.427C57.1847 245.485 57.6918 244.672 58.4339 243.99C59.1854 243.292 60.1085 242.796 61.2033 242.503C62.298 242.21 63.3389 242.179 64.326 242.412C65.3097 242.631 66.1549 243.081 66.8618 243.761C67.5686 244.441 68.06 245.297 68.3361 246.327C68.6122 247.357 68.6142 248.344 68.3422 249.286C68.0702 250.229 67.5649 251.047 66.8262 251.742C66.0841 252.424 65.1657 252.912 64.071 253.205ZM63.4084 250.733C64.1811 250.525 64.7432 250.099 65.0946 249.453C65.4554 248.79 65.5184 248.021 65.2838 247.145C65.0491 246.269 64.6116 245.641 63.9713 245.26C63.3404 244.863 62.6386 244.769 61.8658 244.976C61.0931 245.183 60.5263 245.618 60.1655 246.28C59.8013 246.93 59.7365 247.693 59.9712 248.568C60.2058 249.444 60.645 250.079 61.2888 250.472C61.9291 250.853 62.6357 250.94 63.4084 250.733ZM76.7883 249.798C75.6807 250.094 74.6222 250.137 73.6128 249.924C72.6127 249.695 71.7529 249.242 71.0332 248.565C70.3264 247.885 69.835 247.03 69.5589 245.999C69.2828 244.969 69.2808 243.983 69.5528 243.04C69.8376 242.094 70.3576 241.278 71.1126 240.593C71.877 239.891 72.813 239.392 73.9206 239.095C75.0153 238.802 76.0305 238.778 76.9661 239.025C77.9111 239.255 78.6843 239.744 79.2855 240.494L77.2844 242.376C76.4881 241.568 75.5813 241.301 74.5638 241.573C73.7782 241.784 73.1968 242.216 72.8197 242.869C72.4426 243.522 72.3731 244.293 72.6112 245.182C72.8493 246.07 73.295 246.703 73.9482 247.08C74.6014 247.457 75.3208 247.541 76.1064 247.33C77.1367 247.054 77.7882 246.369 78.0609 245.274L80.7401 245.923C80.5874 246.847 80.1611 247.652 79.4611 248.336C78.7739 249.017 77.883 249.504 76.7883 249.798ZM89.8059 237.655L86.2899 238.597L88.4123 246.517L85.4179 247.32L83.2956 239.399L79.7796 240.341L79.117 237.869L89.1433 235.182L89.8059 237.655ZM110.05 238.069L111.324 242.822L108.522 243.572L107.912 241.293L99.0057 243.679L96.2208 233.286L99.2152 232.483L101.338 240.404L105.53 239.281L103.407 231.36L106.421 230.552L108.543 238.473L110.05 238.069ZM121.329 232.169C121.34 232.208 121.393 232.483 121.489 232.996L113.626 235.103C113.94 235.709 114.412 236.128 115.04 236.36C115.668 236.592 116.375 236.602 117.16 236.392C117.701 236.247 118.157 236.042 118.528 235.777C118.908 235.496 119.232 235.133 119.499 234.688L121.568 235.998C120.89 237.38 119.61 238.324 117.73 238.827C116.558 239.141 115.461 239.194 114.439 238.985C113.413 238.763 112.547 238.311 111.84 237.631C111.133 236.951 110.642 236.096 110.365 235.065C110.093 234.048 110.086 233.07 110.345 232.131C110.614 231.175 111.106 230.36 111.823 229.685C112.548 228.993 113.433 228.508 114.476 228.228C115.493 227.956 116.473 227.928 117.415 228.145C118.356 228.362 119.169 228.821 119.854 229.521C120.548 230.204 121.04 231.087 121.329 232.169ZM115.106 230.503C114.424 230.686 113.902 231.033 113.542 231.543C113.182 232.054 113.04 232.658 113.117 233.355L118.236 231.983C117.957 231.354 117.534 230.908 116.967 230.646C116.396 230.371 115.776 230.323 115.106 230.503ZM122.237 226.315L125.231 225.512L126.318 229.569L130.839 228.358L129.752 224.301L132.765 223.494L135.55 233.887L132.536 234.694L131.496 230.811L126.976 232.023L128.016 235.906L125.022 236.708L122.237 226.315ZM134.367 219.71L137.961 218.747L139.727 227.736L137.332 228.378L134.367 219.71ZM139.829 232.906C139.301 233.048 138.812 232.999 138.361 232.761C137.92 232.506 137.634 232.134 137.503 231.645C137.372 231.156 137.437 230.703 137.699 230.288C137.957 229.86 138.356 229.574 138.897 229.429C139.438 229.284 139.927 229.332 140.365 229.574C140.799 229.803 141.081 230.162 141.212 230.651C141.344 231.141 141.275 231.607 141.008 232.052C140.75 232.48 140.357 232.765 139.829 232.906ZM156.179 228.608C154.801 228.977 153.472 229.016 152.193 228.723C150.923 228.415 149.825 227.819 148.898 226.935C147.98 226.036 147.342 224.916 146.983 223.576C146.624 222.237 146.619 220.955 146.967 219.73C147.325 218.488 147.978 217.423 148.927 216.533C149.885 215.628 151.06 214.989 152.45 214.616C153.622 214.302 154.734 214.225 155.784 214.385C156.848 214.542 157.805 214.921 158.656 215.521L157.144 217.914C155.946 217.103 154.672 216.878 153.319 217.241C152.482 217.465 151.785 217.852 151.229 218.401C150.668 218.938 150.289 219.585 150.092 220.342C149.907 221.095 149.927 221.89 150.151 222.728C150.376 223.565 150.756 224.263 151.293 224.824C151.842 225.38 152.496 225.757 153.252 225.955C154.006 226.14 154.801 226.12 155.638 225.895C156.991 225.533 157.981 224.695 158.609 223.381L161.115 224.697C160.681 225.655 160.043 226.468 159.201 227.136C158.358 227.803 157.351 228.294 156.179 228.608ZM166.805 214.207C167.771 213.948 168.707 213.939 169.614 214.179C170.53 214.403 171.322 214.86 171.99 215.551C172.655 216.229 173.13 217.102 173.417 218.171C173.703 219.24 173.73 220.24 173.496 221.172C173.259 222.092 172.802 222.884 172.124 223.548C171.456 224.197 170.639 224.65 169.673 224.909C168.347 225.265 167.191 225.126 166.207 224.492L167.506 229.341L164.493 230.149L160.703 216.007L163.582 215.236L163.903 216.434C164.408 215.332 165.376 214.59 166.805 214.207ZM168.489 222.576C169.262 222.369 169.824 221.943 170.175 221.296C170.536 220.634 170.599 219.864 170.364 218.989C170.13 218.113 169.692 217.485 169.052 217.104C168.421 216.707 167.719 216.612 166.946 216.819C166.174 217.026 165.607 217.461 165.246 218.124C164.895 218.77 164.836 219.531 165.071 220.407C165.306 221.283 165.738 221.919 166.369 222.316C167.01 222.697 167.716 222.783 168.489 222.576ZM181.831 221.652C180.736 221.945 179.691 221.984 178.694 221.767C177.707 221.535 176.86 221.079 176.153 220.398C175.446 219.718 174.955 218.863 174.679 217.833C174.403 216.802 174.401 215.816 174.673 214.873C174.945 213.931 175.452 213.119 176.194 212.437C176.945 211.738 177.868 211.242 178.963 210.949C180.058 210.656 181.099 210.625 182.086 210.858C183.07 211.077 183.915 211.527 184.622 212.208C185.329 212.888 185.82 213.743 186.096 214.773C186.372 215.804 186.374 216.79 186.102 217.733C185.83 218.675 185.325 219.494 184.586 220.189C183.844 220.871 182.926 221.358 181.831 221.652ZM181.168 219.179C181.941 218.972 182.503 218.545 182.855 217.899C183.215 217.236 183.278 216.467 183.044 215.591C182.809 214.715 182.372 214.087 181.731 213.707C181.1 213.31 180.399 213.215 179.626 213.422C178.853 213.629 178.286 214.064 177.925 214.726C177.561 215.376 177.496 216.139 177.731 217.015C177.966 217.891 178.405 218.525 179.049 218.919C179.689 219.299 180.396 219.386 181.168 219.179ZM196.127 206.516L198.911 216.909L195.898 217.717L194.862 213.853C194.104 214.526 193.197 215.003 192.141 215.286C190.737 215.663 189.59 215.632 188.7 215.194C187.819 214.74 187.199 213.843 186.84 212.504L185.965 209.239L188.979 208.431L189.802 211.503C189.971 212.134 190.254 212.548 190.652 212.745C191.063 212.939 191.577 212.953 192.196 212.787C192.981 212.576 193.677 212.211 194.283 211.689L193.113 207.323L196.127 206.516ZM199.02 205.741L202.015 204.938L203.102 208.995L207.622 207.784L206.535 203.727L209.549 202.919L212.334 213.313L209.32 214.12L208.28 210.237L203.759 211.449L204.8 215.332L201.805 216.134L199.02 205.741ZM220.128 211.39C219.034 211.683 217.988 211.722 216.991 211.506C216.004 211.273 215.157 210.817 214.451 210.137C213.744 209.456 213.252 208.601 212.976 207.571C212.7 206.541 212.698 205.554 212.97 204.612C213.242 203.669 213.749 202.857 214.491 202.175C215.243 201.477 216.166 200.981 217.261 200.687C218.355 200.394 219.396 200.364 220.383 200.596C221.367 200.816 222.212 201.266 222.919 201.946C223.626 202.626 224.117 203.481 224.393 204.512C224.67 205.542 224.672 206.528 224.4 207.471C224.128 208.413 223.622 209.232 222.884 209.927C222.142 210.609 221.223 211.097 220.128 211.39ZM219.466 208.917C220.239 208.71 220.801 208.283 221.152 207.637C221.513 206.974 221.576 206.205 221.341 205.329C221.106 204.454 220.669 203.826 220.029 203.445C219.398 203.048 218.696 202.953 217.923 203.16C217.15 203.367 216.584 203.802 216.223 204.465C215.859 205.114 215.794 205.877 216.029 206.753C216.263 207.629 216.702 208.263 217.346 208.657C217.987 209.037 218.693 209.124 219.466 208.917ZM223.791 195.749L227.384 194.786L229.151 203.775L226.755 204.417L223.791 195.749ZM229.252 208.945C228.724 209.087 228.235 209.038 227.785 208.8C227.344 208.545 227.058 208.173 226.927 207.684C226.796 207.195 226.861 206.742 227.122 206.327C227.38 205.899 227.78 205.613 228.321 205.468C228.862 205.323 229.351 205.371 229.788 205.613C230.222 205.842 230.505 206.201 230.636 206.69C230.767 207.18 230.699 207.646 230.432 208.091C230.174 208.519 229.78 208.804 229.252 208.945ZM245.66 204.631C244.257 205.008 242.907 205.045 241.611 204.743C240.329 204.438 239.224 203.844 238.297 202.96C237.379 202.06 236.743 200.947 236.388 199.621C236.032 198.294 236.028 197.018 236.377 195.793C236.734 194.552 237.392 193.478 238.35 192.573C239.321 191.664 240.509 191.021 241.913 190.645C243.317 190.269 244.66 190.233 245.942 190.538C247.225 190.843 248.332 191.444 249.262 192.34C250.189 193.224 250.83 194.329 251.186 195.656C251.541 196.982 251.54 198.266 251.182 199.508C250.821 200.736 250.162 201.803 249.204 202.709C248.245 203.614 247.064 204.255 245.66 204.631ZM244.946 201.965C245.745 201.751 246.417 201.378 246.965 200.845C247.509 200.299 247.873 199.649 248.058 198.896C248.255 198.139 248.242 197.342 248.017 196.504C247.793 195.667 247.406 194.97 246.857 194.414C246.32 193.853 245.681 193.479 244.941 193.291C244.197 193.09 243.426 193.097 242.627 193.311C241.829 193.525 241.157 193.905 240.613 194.451C240.066 194.984 239.694 195.629 239.496 196.386C239.312 197.139 239.331 197.935 239.556 198.772C239.78 199.609 240.161 200.308 240.697 200.868C241.247 201.424 241.893 201.803 242.637 202.004C243.378 202.192 244.148 202.179 244.946 201.965ZM264.115 195.214L262.666 195.602L263.722 199.543L260.747 200.34L259.691 196.399L258.242 196.788L257.096 201.319L253.542 202.271L255.367 196.026L250.988 191.816L254.176 190.962L257.557 194.383L259.044 193.985L257.962 189.947L260.937 189.15L262.019 193.187L263.488 192.794L264.724 188.135L267.911 187.281L266.224 193.117L270.947 197.607L267.374 198.565L264.115 195.214ZM269.729 186.794L272.723 185.992L274.38 192.174L277.785 184.636L280.547 183.895L283.332 194.289L280.338 195.091L278.682 188.909L275.296 196.442L272.514 197.188L269.729 186.794ZM297.216 187.918L298.479 192.632L295.678 193.383L295.077 191.142L287.775 193.098L288.375 195.339L285.574 196.09L284.311 191.376L284.736 191.262C285.377 191.077 285.719 190.578 285.764 189.765C285.808 188.953 285.678 187.849 285.373 186.454L284.546 182.824L293.606 180.396L295.728 188.317L297.216 187.918ZM288.154 185.936C288.398 187.003 288.546 187.888 288.597 188.592C288.66 189.293 288.571 189.862 288.329 190.3L292.715 189.124L291.255 183.677L287.855 184.588L288.154 185.936ZM300.986 178.253C302.596 177.822 303.936 177.877 305.006 178.418C306.072 178.947 306.813 179.984 307.227 181.53L308.816 187.46L305.996 188.216L305.649 186.922C305.341 188.04 304.414 188.806 302.869 189.22C302.07 189.434 301.338 189.485 300.674 189.373C300.022 189.258 299.477 189.003 299.04 188.61C298.604 188.216 298.304 187.717 298.142 187.111C297.883 186.145 298.04 185.289 298.613 184.542C299.199 183.791 300.251 183.212 301.771 182.805L304.167 182.163C303.991 181.506 303.656 181.058 303.164 180.817C302.668 180.563 302.021 180.543 301.222 180.757C300.669 180.906 300.145 181.143 299.653 181.468C299.17 181.777 298.781 182.129 298.487 182.526L296.841 180.71C297.3 180.159 297.894 179.668 298.621 179.239C299.361 178.806 300.149 178.478 300.986 178.253ZM303.079 186.989C303.594 186.851 304.02 186.613 304.357 186.274C304.691 185.922 304.879 185.492 304.922 184.984L304.638 183.921L302.571 184.475C301.334 184.806 300.825 185.378 301.042 186.189C301.146 186.576 301.377 186.845 301.735 186.997C302.103 187.134 302.551 187.131 303.079 186.989ZM320.155 178.894C320.166 178.932 320.219 179.208 320.315 179.721L312.452 181.827C312.766 182.433 313.238 182.852 313.866 183.084C314.494 183.316 315.201 183.327 315.986 183.117C316.527 182.972 316.983 182.767 317.354 182.502C317.734 182.22 318.058 181.858 318.325 181.413L320.395 182.722C319.716 184.105 318.436 185.048 316.556 185.552C315.384 185.866 314.287 185.919 313.265 185.709C312.239 185.487 311.373 185.036 310.666 184.356C309.959 183.676 309.468 182.82 309.192 181.79C308.919 180.773 308.912 179.794 309.171 178.855C309.44 177.9 309.932 177.085 310.649 176.41C311.374 175.718 312.259 175.233 313.302 174.953C314.32 174.681 315.299 174.653 316.241 174.87C317.182 175.087 317.995 175.545 318.68 176.245C319.374 176.929 319.866 177.812 320.155 178.894ZM313.932 177.228C313.25 177.41 312.728 177.757 312.368 178.268C312.008 178.778 311.866 179.382 311.943 180.08L317.062 178.708C316.783 178.079 316.36 177.633 315.793 177.371C315.222 177.096 314.602 177.048 313.932 177.228ZM330.099 173.268L326.583 174.211L328.705 182.131L325.711 182.933L323.588 175.013L320.073 175.955L319.41 173.482L329.436 170.796L330.099 173.268ZM338.381 179.704C337.273 180.001 336.215 180.043 335.205 179.83C334.205 179.601 333.345 179.149 332.626 178.472C331.919 177.792 331.427 176.936 331.151 175.906C330.875 174.876 330.873 173.889 331.145 172.947C331.43 172.001 331.95 171.185 332.705 170.5C333.469 169.798 334.405 169.299 335.513 169.002C336.608 168.708 337.623 168.685 338.558 168.931C339.503 169.161 340.277 169.651 340.878 170.401L338.877 172.283C338.08 171.475 337.174 171.207 336.156 171.48C335.371 171.69 334.789 172.122 334.412 172.775C334.035 173.428 333.965 174.199 334.204 175.088C334.442 175.977 334.887 176.61 335.541 176.987C336.194 177.364 336.913 177.447 337.699 177.237C338.729 176.961 339.381 176.275 339.653 175.181L342.332 175.829C342.18 176.754 341.753 177.558 341.053 178.243C340.366 178.924 339.475 179.411 338.381 179.704ZM351.012 165.015L353.796 175.408L351.111 176.127L350.314 173.152L348.092 173.748L346.919 177.251L343.712 178.11L345.177 174.073C344.38 173.983 343.718 173.726 343.19 173.301C342.671 172.861 342.31 172.26 342.107 171.5C341.779 170.277 341.965 169.219 342.665 168.328C343.374 167.42 344.501 166.759 346.047 166.345L351.012 165.015ZM346.762 168.783C346.118 168.955 345.66 169.202 345.387 169.524C345.127 169.842 345.066 170.259 345.204 170.774C345.342 171.289 345.599 171.628 345.973 171.789C346.357 171.935 346.871 171.921 347.515 171.749L349.776 171.143L348.984 168.188L346.762 168.783ZM365.462 160.977C366.428 160.718 367.364 160.709 368.27 160.949C369.186 161.173 369.978 161.63 370.646 162.321C371.311 162.999 371.786 163.872 372.073 164.941C372.359 166.01 372.386 167.011 372.152 167.943C371.916 168.862 371.458 169.654 370.781 170.319C370.112 170.967 369.295 171.421 368.329 171.68C367.003 172.035 365.847 171.896 364.863 171.262L366.163 176.111L363.149 176.919L359.36 162.778L362.238 162.006L362.559 163.204C363.065 162.102 364.032 161.36 365.462 160.977ZM367.145 169.347C367.918 169.139 368.48 168.713 368.831 168.066C369.192 167.404 369.255 166.635 369.021 165.759C368.786 164.883 368.348 164.255 367.708 163.874C367.077 163.477 366.375 163.383 365.603 163.59C364.83 163.797 364.263 164.232 363.902 164.894C363.551 165.54 363.493 166.301 363.727 167.177C363.962 168.053 364.395 168.689 365.026 169.086C365.666 169.467 366.372 169.554 367.145 169.347ZM380.487 168.422C379.392 168.715 378.347 168.754 377.35 168.538C376.363 168.305 375.516 167.849 374.809 167.169C374.103 166.488 373.611 165.633 373.335 164.603C373.059 163.573 373.057 162.586 373.329 161.644C373.601 160.701 374.108 159.889 374.85 159.207C375.602 158.509 376.525 158.013 377.619 157.719C378.714 157.426 379.755 157.396 380.742 157.628C381.726 157.848 382.571 158.297 383.278 158.978C383.985 159.658 384.476 160.513 384.752 161.544C385.028 162.574 385.03 163.56 384.758 164.503C384.486 165.445 383.981 166.264 383.242 166.959C382.5 167.641 381.582 168.129 380.487 168.422ZM379.825 165.949C380.597 165.742 381.159 165.315 381.511 164.669C381.872 164.006 381.935 163.237 381.7 162.361C381.465 161.486 381.028 160.858 380.387 160.477C379.757 160.08 379.055 159.985 378.282 160.192C377.509 160.399 376.943 160.834 376.582 161.497C376.217 162.146 376.153 162.909 376.387 163.785C376.622 164.661 377.061 165.295 377.705 165.689C378.345 166.069 379.052 166.156 379.825 165.949ZM393.204 165.014C392.097 165.311 391.038 165.353 390.029 165.14C389.029 164.911 388.169 164.459 387.449 163.782C386.743 163.102 386.251 162.246 385.975 161.216C385.699 160.186 385.697 159.199 385.969 158.257C386.254 157.311 386.774 156.495 387.529 155.81C388.293 155.108 389.229 154.609 390.337 154.312C391.431 154.018 392.447 153.995 393.382 154.241C394.327 154.471 395.1 154.961 395.702 155.711L393.701 157.593C392.904 156.785 391.997 156.517 390.98 156.79C390.194 157 389.613 157.432 389.236 158.085C388.859 158.738 388.789 159.509 389.027 160.398C389.266 161.287 389.711 161.92 390.364 162.297C391.018 162.674 391.737 162.757 392.523 162.547C393.553 162.271 394.204 161.585 394.477 160.491L397.156 161.139C397.004 162.064 396.577 162.868 395.877 163.553C395.19 164.234 394.299 164.721 393.204 165.014ZM406.222 152.871L402.706 153.813L404.828 161.734L401.834 162.536L399.712 154.616L396.196 155.558L395.533 153.085L405.56 150.399L406.222 152.871ZM426.466 153.286L427.74 158.038L424.939 158.789L424.328 156.509L415.422 158.895L412.637 148.502L415.631 147.7L417.754 155.62L421.946 154.497L419.824 146.576L422.837 145.769L424.96 153.69L426.466 153.286ZM437.746 147.385C437.756 147.424 437.809 147.7 437.905 148.212L430.042 150.319C430.357 150.925 430.828 151.344 431.456 151.576C432.084 151.808 432.791 151.819 433.577 151.608C434.117 151.463 434.573 151.259 434.944 150.994C435.324 150.712 435.648 150.349 435.915 149.905L437.985 151.214C437.306 152.597 436.027 153.54 434.146 154.044C432.974 154.358 431.877 154.41 430.855 154.201C429.829 153.979 428.963 153.528 428.256 152.848C427.549 152.167 427.058 151.312 426.782 150.282C426.509 149.264 426.502 148.286 426.761 147.347C427.03 146.392 427.522 145.576 428.239 144.901C428.965 144.21 429.849 143.725 430.892 143.445C431.91 143.172 432.889 143.145 433.831 143.362C434.772 143.579 435.585 144.037 436.27 144.737C436.964 145.421 437.456 146.304 437.746 147.385ZM431.522 145.719C430.84 145.902 430.318 146.249 429.958 146.76C429.598 147.27 429.456 147.874 429.533 148.572L434.652 147.2C434.373 146.571 433.95 146.125 433.383 145.863C432.812 145.588 432.192 145.54 431.522 145.719ZM438.653 141.531L441.647 140.729L442.734 144.786L447.255 143.574L446.168 139.518L449.181 138.71L451.966 149.103L448.953 149.911L447.912 146.028L443.392 147.239L444.432 151.122L441.438 151.925L438.653 141.531ZM450.784 134.926L454.377 133.964L456.144 142.953L453.748 143.595L450.784 134.926ZM456.245 148.123C455.717 148.264 455.228 148.216 454.777 147.977C454.337 147.723 454.051 147.351 453.919 146.862C453.788 146.372 453.853 145.92 454.115 145.505C454.373 145.077 454.772 144.79 455.313 144.645C455.854 144.5 456.343 144.549 456.781 144.79C457.215 145.019 457.497 145.378 457.629 145.868C457.76 146.357 457.692 146.824 457.424 147.268C457.166 147.696 456.773 147.981 456.245 148.123ZM472.595 143.824C471.217 144.194 469.888 144.232 468.609 143.94C467.339 143.631 466.241 143.035 465.314 142.152C464.397 141.252 463.758 140.132 463.399 138.793C463.041 137.454 463.035 136.171 463.383 134.946C463.741 133.705 464.394 132.639 465.343 131.75C466.301 130.844 467.476 130.205 468.867 129.833C470.039 129.519 471.15 129.442 472.201 129.602C473.264 129.759 474.221 130.137 475.072 130.737L473.56 133.13C472.363 132.319 471.088 132.095 469.736 132.457C468.898 132.682 468.201 133.068 467.645 133.618C467.084 134.155 466.706 134.801 466.508 135.558C466.324 136.312 466.343 137.107 466.568 137.944C466.792 138.781 467.172 139.48 467.709 140.04C468.259 140.597 468.912 140.974 469.669 141.171C470.422 141.356 471.217 141.336 472.055 141.112C473.407 140.75 474.397 139.911 475.025 138.597L477.531 139.914C477.098 140.872 476.46 141.685 475.617 142.352C474.774 143.02 473.767 143.51 472.595 143.824ZM483.222 129.423C484.187 129.165 485.124 129.155 486.03 129.396C486.946 129.619 487.738 130.077 488.406 130.767C489.071 131.445 489.546 132.318 489.833 133.387C490.119 134.456 490.146 135.457 489.912 136.389C489.676 137.308 489.218 138.1 488.541 138.765C487.872 139.413 487.055 139.867 486.089 140.126C484.763 140.481 483.607 140.342 482.623 139.709L483.922 144.558L480.909 145.365L477.12 131.224L479.998 130.453L480.319 131.65C480.824 130.549 481.792 129.806 483.222 129.423ZM484.905 137.793C485.678 137.586 486.24 137.159 486.591 136.513C486.952 135.85 487.015 135.081 486.78 134.205C486.546 133.329 486.108 132.701 485.468 132.321C484.837 131.924 484.135 131.829 483.363 132.036C482.59 132.243 482.023 132.678 481.662 133.34C481.311 133.987 481.253 134.748 481.487 135.624C481.722 136.499 482.155 137.136 482.786 137.533C483.426 137.913 484.132 138 484.905 137.793ZM498.247 136.868C497.152 137.161 496.107 137.2 495.11 136.984C494.123 136.752 493.276 136.295 492.569 135.615C491.862 134.935 491.371 134.079 491.095 133.049C490.819 132.019 490.817 131.032 491.089 130.09C491.361 129.147 491.868 128.335 492.61 127.653C493.362 126.955 494.285 126.459 495.379 126.166C496.474 125.872 497.515 125.842 498.502 126.074C499.486 126.294 500.331 126.744 501.038 127.424C501.745 128.104 502.236 128.96 502.512 129.99C502.788 131.02 502.79 132.007 502.518 132.949C502.246 133.892 501.741 134.71 501.002 135.405C500.26 136.087 499.342 136.575 498.247 136.868ZM497.585 134.395C498.357 134.188 498.919 133.762 499.271 133.115C499.631 132.453 499.695 131.684 499.46 130.808C499.225 129.932 498.788 129.304 498.147 128.923C497.517 128.526 496.815 128.431 496.042 128.638C495.269 128.846 494.702 129.28 494.342 129.943C493.977 130.593 493.913 131.356 494.147 132.231C494.382 133.107 494.821 133.742 495.465 134.135C496.105 134.516 496.812 134.602 497.585 134.395ZM512.543 121.732L515.328 132.126L512.314 132.933L511.279 129.07C510.52 129.742 509.613 130.22 508.557 130.503C507.153 130.879 506.006 130.848 505.116 130.41C504.235 129.956 503.615 129.059 503.256 127.72L502.381 124.455L505.395 123.648L506.218 126.719C506.387 127.35 506.671 127.764 507.068 127.962C507.479 128.155 507.994 128.169 508.612 128.004C509.397 127.793 510.093 127.427 510.699 126.906L509.529 122.54L512.543 121.732ZM515.436 120.957L518.431 120.155L519.518 124.212L524.038 123L522.951 118.943L525.965 118.136L528.75 128.529L525.736 129.337L524.696 125.454L520.175 126.665L521.216 130.548L518.221 131.35L515.436 120.957ZM536.545 126.606C535.45 126.9 534.404 126.938 533.408 126.722C532.421 126.49 531.574 126.033 530.867 125.353C530.16 124.673 529.668 123.818 529.392 122.787C529.116 121.757 529.114 120.771 529.386 119.828C529.658 118.886 530.165 118.073 530.907 117.391C531.659 116.693 532.582 116.197 533.677 115.904C534.772 115.611 535.812 115.58 536.8 115.813C537.783 116.032 538.629 116.482 539.335 117.162C540.042 117.843 540.534 118.698 540.81 119.728C541.086 120.758 541.088 121.745 540.816 122.687C540.544 123.63 540.038 124.449 539.3 125.143C538.558 125.825 537.639 126.313 536.545 126.606ZM535.882 124.134C536.655 123.927 537.217 123.5 537.568 122.854C537.929 122.191 537.992 121.422 537.757 120.546C537.523 119.67 537.085 119.042 536.445 118.661C535.814 118.265 535.112 118.17 534.339 118.377C533.567 118.584 533 119.019 532.639 119.681C532.275 120.331 532.21 121.094 532.445 121.97C532.679 122.845 533.119 123.48 533.762 123.873C534.403 124.254 535.109 124.341 535.882 124.134ZM540.207 110.966L543.8 110.003L545.567 118.992L543.172 119.634L540.207 110.966ZM545.669 124.162C545.141 124.303 544.651 124.255 544.201 124.016C543.76 123.762 543.474 123.39 543.343 122.901C543.212 122.411 543.277 121.959 543.538 121.544C543.797 121.116 544.196 120.829 544.737 120.684C545.278 120.539 545.767 120.588 546.204 120.829C546.638 121.058 546.921 121.417 547.052 121.907C547.183 122.396 547.115 122.863 546.848 123.307C546.59 123.735 546.197 124.02 545.669 124.162ZM562.077 119.848C560.673 120.224 559.323 120.261 558.028 119.96C556.745 119.655 555.64 119.06 554.713 118.177C553.796 117.277 553.159 116.164 552.804 114.837C552.448 113.511 552.445 112.235 552.793 111.01C553.15 109.768 553.808 108.695 554.766 107.789C555.738 106.88 556.925 106.237 558.329 105.861C559.733 105.485 561.076 105.45 562.359 105.755C563.641 106.06 564.748 106.661 565.678 107.557C566.605 108.441 567.246 109.546 567.602 110.872C567.957 112.199 567.956 113.483 567.599 114.724C567.238 115.953 566.578 117.02 565.62 117.925C564.661 118.831 563.48 119.472 562.077 119.848ZM561.362 117.182C562.161 116.968 562.834 116.594 563.381 116.061C563.925 115.515 564.289 114.866 564.474 114.112C564.671 113.355 564.658 112.558 564.433 111.721C564.209 110.884 563.822 110.187 563.273 109.63C562.736 109.07 562.098 108.696 561.357 108.508C560.613 108.307 559.842 108.313 559.043 108.527C558.245 108.741 557.574 109.121 557.03 109.667C556.482 110.2 556.11 110.845 555.912 111.602C555.728 112.356 555.748 113.151 555.972 113.988C556.196 114.825 556.577 115.524 557.113 116.084C557.663 116.641 558.31 117.02 559.054 117.221C559.794 117.409 560.564 117.396 561.362 117.182ZM580.531 110.431L579.083 110.819L580.139 114.76L577.163 115.557L576.108 111.616L574.659 112.004L573.512 116.535L569.958 117.488L571.783 111.242L567.405 107.032L570.592 106.178L573.973 109.6L575.46 109.201L574.379 105.164L577.354 104.366L578.436 108.404L579.904 108.011L581.14 103.352L584.328 102.498L582.64 108.333L587.364 112.824L583.79 113.781L580.531 110.431ZM586.145 102.011L589.14 101.208L590.796 107.39L594.201 99.8522L596.964 99.1119L599.749 109.505L596.754 110.308L595.098 104.126L591.712 111.659L588.93 112.404L586.145 102.011ZM613.632 103.135L614.895 107.849L612.094 108.599L611.493 106.358L604.191 108.315L604.791 110.556L601.99 111.306L600.727 106.593L601.152 106.479C601.793 106.293 602.135 105.794 602.18 104.982C602.224 104.169 602.094 103.065 601.789 101.67L600.962 98.0406L610.022 95.6129L612.144 103.534L613.632 103.135ZM604.57 101.153C604.815 102.219 604.962 103.105 605.013 103.809C605.076 104.509 604.987 105.079 604.745 105.516L609.131 104.341L607.671 98.8932L604.271 99.8042L604.57 101.153ZM617.402 93.4697C619.012 93.0384 620.352 93.0935 621.422 93.635C622.489 94.1636 623.229 95.2007 623.643 96.7462L625.232 102.677L622.412 103.433L622.065 102.138C621.757 103.256 620.83 104.022 619.285 104.436C618.486 104.65 617.755 104.701 617.09 104.59C616.438 104.474 615.893 104.22 615.457 103.826C615.02 103.433 614.72 102.933 614.558 102.328C614.299 101.362 614.456 100.505 615.029 99.7583C615.615 99.0078 616.668 98.4289 618.187 98.0217L620.583 97.3798C620.407 96.723 620.073 96.2742 619.58 96.0335C619.084 95.7798 618.437 95.76 617.639 95.9739C617.085 96.1223 616.562 96.3592 616.069 96.6844C615.586 96.9933 615.197 97.3459 614.903 97.7422L613.257 95.9264C613.717 95.3753 614.31 94.885 615.037 94.4556C615.777 94.0227 616.565 93.6941 617.402 93.4697ZM619.495 102.206C620.01 102.068 620.436 101.829 620.773 101.491C621.107 101.139 621.295 100.709 621.339 100.2L621.054 99.1378L618.987 99.6917C617.75 100.023 617.241 100.594 617.458 101.406C617.562 101.792 617.793 102.061 618.151 102.214C618.519 102.35 618.967 102.347 619.495 102.206ZM636.572 94.1102C636.582 94.1488 636.635 94.4245 636.731 94.9371L628.868 97.0439C629.183 97.6499 629.654 98.0689 630.282 98.3009C630.91 98.5329 631.617 98.5436 632.403 98.3331C632.943 98.1882 633.399 97.9832 633.77 97.7183C634.15 97.437 634.474 97.0741 634.741 96.6298L636.811 97.9388C636.132 99.3215 634.853 100.265 632.972 100.769C631.8 101.083 630.703 101.135 629.681 100.926C628.655 100.704 627.789 100.253 627.082 99.5724C626.375 98.8922 625.884 98.0369 625.608 97.0066C625.335 95.9891 625.328 95.0109 625.587 94.0718C625.856 93.1164 626.348 92.3012 627.065 91.6261C627.791 90.9347 628.675 90.4492 629.718 90.1697C630.736 89.8971 631.715 89.8693 632.657 90.0863C633.598 90.3034 634.411 90.7619 635.096 91.4619C635.79 92.1456 636.282 93.0284 636.572 94.1102ZM630.348 92.4441C629.666 92.627 629.144 92.9738 628.784 93.4844C628.424 93.995 628.282 94.5989 628.359 95.2963L633.478 93.9245C633.199 93.2953 632.776 92.8496 632.209 92.5875C631.638 92.3125 631.018 92.2647 630.348 92.4441ZM646.515 88.485L642.999 89.4271L645.121 97.3477L642.127 98.15L640.005 90.2294L636.489 91.1715L635.826 88.6988L645.852 86.0122L646.515 88.485ZM654.797 94.9208C653.689 95.2176 652.631 95.2596 651.621 95.047C650.621 94.818 649.761 94.3651 649.042 93.6883C648.335 93.0081 647.843 92.1528 647.567 91.1225C647.291 90.0922 647.289 89.1057 647.561 88.1632C647.846 87.2173 648.366 86.4016 649.121 85.7161C649.886 85.0144 650.822 84.5151 651.929 84.2183C653.024 83.925 654.039 83.9015 654.975 84.1477C655.92 84.3776 656.693 84.8675 657.294 85.6175L655.293 87.4995C654.497 86.6914 653.59 86.4237 652.572 86.6963C651.787 86.9068 651.205 87.3386 650.828 87.9918C650.451 88.645 650.382 89.416 650.62 90.3046C650.858 91.1933 651.304 91.8262 651.957 92.2033C652.61 92.5804 653.329 92.6637 654.115 92.4532C655.145 92.1771 655.797 91.4918 656.069 90.3973L658.749 91.046C658.596 91.9703 658.17 92.7747 657.47 93.4592C656.782 94.1403 655.892 94.6275 654.797 94.9208ZM667.428 80.2311L670.213 90.6245L667.527 91.344L666.73 88.369L664.509 88.9642L663.335 92.4673L660.128 93.3266L661.594 89.2898C660.796 89.1997 660.134 88.9424 659.606 88.5179C659.088 88.0771 658.727 87.4767 658.523 86.7169C658.195 85.4934 658.381 84.4359 659.081 83.5444C659.79 82.6365 660.917 81.9756 662.463 81.5615L667.428 80.2311ZM663.178 83.9994C662.534 84.1719 662.076 84.419 661.803 84.7405C661.543 85.0586 661.482 85.4753 661.62 85.9904C661.759 86.5056 662.015 86.8441 662.39 87.006C662.774 87.1515 663.288 87.138 663.932 86.9655L666.192 86.3598L665.4 83.4041L663.178 83.9994ZM681.878 76.1936C682.844 75.9348 683.78 75.9255 684.686 76.1658C685.602 76.3897 686.394 76.847 687.062 77.5376C687.727 78.2153 688.203 79.0886 688.489 80.1576C688.775 81.2265 688.802 82.2271 688.569 83.1593C688.332 84.0785 687.875 84.8705 687.197 85.5353C686.529 86.1837 685.711 86.6373 684.746 86.8961C683.419 87.2515 682.264 87.1125 681.279 86.4789L682.579 91.3279L679.565 92.1354L675.776 77.9943L678.654 77.223L678.975 78.4207C679.481 77.319 680.448 76.5767 681.878 76.1936ZM683.561 84.5631C684.334 84.356 684.896 83.9293 685.247 83.283C685.608 82.6204 685.671 81.8512 685.437 80.9754C685.202 80.0997 684.765 79.4715 684.124 79.0909C683.493 78.694 682.792 78.5991 682.019 78.8061C681.246 79.0132 680.679 79.448 680.318 80.1107C679.967 80.757 679.909 81.518 680.143 82.3938C680.378 83.2695 680.811 83.9059 681.442 84.3028C682.082 84.6834 682.789 84.7701 683.561 84.5631ZM696.903 83.6384C695.809 83.9317 694.763 83.9703 693.766 83.7542C692.779 83.5218 691.932 83.0655 691.226 82.3852C690.519 81.705 690.027 80.8497 689.751 79.8194C689.475 78.7891 689.473 77.8026 689.745 76.8601C690.017 75.9176 690.524 75.1054 691.266 74.4234C692.018 73.7251 692.941 73.2293 694.036 72.9359C695.13 72.6426 696.171 72.6122 697.158 72.8446C698.142 73.0641 698.987 73.514 699.694 74.1943C700.401 74.8745 700.892 75.7298 701.168 76.7601C701.445 77.7905 701.447 78.7769 701.175 79.7194C700.903 80.6619 700.397 81.4806 699.659 82.1754C698.916 82.8574 697.998 83.3451 696.903 83.6384ZM696.241 81.1656C697.014 80.9586 697.576 80.5319 697.927 79.8856C698.288 79.223 698.351 78.4538 698.116 77.578C697.881 76.7022 697.444 76.0741 696.804 75.6935C696.173 75.2966 695.471 75.2016 694.698 75.4087C693.925 75.6158 693.359 76.0506 692.998 76.7132C692.634 77.363 692.569 78.1257 692.804 79.0015C693.038 79.8773 693.477 80.5119 694.121 80.9053C694.762 81.2859 695.468 81.3727 696.241 81.1656ZM709.621 80.2308C708.513 80.5276 707.455 80.5696 706.445 80.357C705.445 80.128 704.585 79.6751 703.866 78.9983C703.159 78.3181 702.667 77.4628 702.391 76.4325C702.115 75.4022 702.113 74.4157 702.385 73.4732C702.67 72.5273 703.19 71.7116 703.945 71.0261C704.709 70.3244 705.645 69.8251 706.753 69.5283C707.848 69.235 708.863 69.2115 709.798 69.4577C710.743 69.6876 711.517 70.1775 712.118 70.9275L710.117 72.8095C709.321 72.0014 708.414 71.7337 707.396 72.0063C706.611 72.2168 706.029 72.6486 705.652 73.3018C705.275 73.955 705.205 74.726 705.444 75.6146C705.682 76.5033 706.127 77.1362 706.781 77.5133C707.434 77.8904 708.153 77.9737 708.939 77.7632C709.969 77.4871 710.621 76.8018 710.893 75.7073L713.572 76.356C713.42 77.2803 712.993 78.0847 712.293 78.7692C711.606 79.4503 710.715 79.9375 709.621 80.2308ZM722.638 68.0878L719.122 69.0299L721.245 76.9505L718.25 77.7529L716.128 69.8323L712.612 70.7744L711.949 68.3016L721.976 65.6151L722.638 68.0878ZM742.883 68.5024L744.156 73.2547L741.355 74.0053L740.744 71.7257L731.838 74.112L729.053 63.7186L732.048 62.9163L734.17 70.8369L738.362 69.7136L736.24 61.793L739.253 60.9855L741.376 68.9061L742.883 68.5024ZM754.162 62.602C754.172 62.6407 754.225 62.9163 754.321 63.4289L746.459 65.5357C746.773 66.1417 747.244 66.5607 747.872 66.7927C748.5 67.0247 749.207 67.0355 749.993 66.8249C750.534 66.68 750.989 66.4751 751.36 66.2101C751.74 65.9288 752.064 65.5659 752.332 65.1216L754.401 66.4306C753.722 67.8133 752.443 68.7566 750.562 69.2605C749.391 69.5745 748.293 69.6269 747.271 69.4177C746.245 69.1956 745.379 68.7445 744.672 68.0642C743.965 67.384 743.474 66.5287 743.198 65.4984C742.925 64.4809 742.918 63.5027 743.178 62.5636C743.446 61.6082 743.939 60.793 744.655 60.1179C745.381 59.4265 746.265 58.9411 747.308 58.6615C748.326 58.3889 749.305 58.3611 750.247 58.5781C751.189 58.7952 752.002 59.2537 752.686 59.9537C753.38 60.6374 753.872 61.5202 754.162 62.602ZM747.939 60.9359C747.256 61.1188 746.735 61.4656 746.374 61.9762C746.014 62.4868 745.873 63.0908 745.949 63.7881L751.068 62.4163C750.789 61.7871 750.366 61.3414 749.799 61.0793C749.228 60.8043 748.608 60.7565 747.939 60.9359ZM755.069 56.7477L758.063 55.9454L759.15 60.0023L763.671 58.791L762.584 54.7341L765.598 53.9266L768.383 64.32L765.369 65.1275L764.328 61.2444L759.808 62.4557L760.848 66.3387L757.854 67.1411L755.069 56.7477ZM767.2 50.143L770.793 49.1802L772.56 58.1693L770.164 58.8111L767.2 50.143ZM772.661 63.3391C772.133 63.4806 771.644 63.4323 771.194 63.194C770.753 62.9395 770.467 62.5675 770.336 62.0781C770.204 61.5887 770.27 61.1364 770.531 60.7213C770.789 60.2932 771.189 60.0067 771.729 59.8618C772.27 59.7169 772.76 59.7652 773.197 60.0069C773.631 60.2357 773.914 60.5948 774.045 61.0842C774.176 61.5736 774.108 62.0405 773.84 62.4849C773.582 62.9129 773.189 63.1976 772.661 63.3391Z" fill="#232323"></path> </g> <g clip-path="url(#clip2_2414_31)" filter="url(#filter1_d_2414_31)"> <rect width="671.329" height="55" transform="translate(5.89087 -117) rotate(45)" fill="#FFD42A"></rect> <path d="M-132.363 -206.058C-133.372 -207.067 -134.07 -208.198 -134.456 -209.452C-134.824 -210.706 -134.857 -211.955 -134.555 -213.2C-134.235 -214.444 -133.584 -215.557 -132.604 -216.537C-131.623 -217.518 -130.515 -218.164 -129.28 -218.475C-128.026 -218.786 -126.777 -218.753 -125.533 -218.376C-124.269 -217.999 -123.128 -217.301 -122.11 -216.283C-121.252 -215.425 -120.63 -214.501 -120.243 -213.511C-119.848 -212.511 -119.697 -211.493 -119.791 -210.456L-122.619 -210.569C-122.516 -212.012 -122.959 -213.228 -123.949 -214.218C-124.562 -214.831 -125.245 -215.241 -125.999 -215.448C-126.744 -215.665 -127.494 -215.67 -128.248 -215.462C-128.993 -215.246 -129.672 -214.831 -130.284 -214.218C-130.897 -213.605 -131.312 -212.926 -131.529 -212.181C-131.736 -211.427 -131.736 -210.673 -131.529 -209.919C-131.312 -209.174 -130.897 -208.495 -130.284 -207.882C-129.294 -206.892 -128.074 -206.454 -126.622 -206.567L-126.508 -203.739C-127.555 -203.635 -128.578 -203.781 -129.577 -204.177C-130.577 -204.573 -131.505 -205.2 -132.363 -206.058ZM-114.578 -204.056C-113.871 -203.348 -113.395 -202.542 -113.15 -201.637C-112.886 -200.732 -112.886 -199.818 -113.15 -198.894C-113.405 -197.979 -113.923 -197.131 -114.706 -196.348C-115.488 -195.566 -116.341 -195.042 -117.265 -194.778C-118.18 -194.524 -119.094 -194.524 -120.009 -194.778C-120.905 -195.033 -121.706 -195.514 -122.413 -196.221C-123.384 -197.192 -123.841 -198.262 -123.785 -199.431L-127.335 -195.881L-129.541 -198.088L-119.189 -208.44L-117.082 -206.332L-117.958 -205.456C-116.752 -205.569 -115.625 -205.102 -114.578 -204.056ZM-120.985 -198.413C-120.419 -197.847 -119.769 -197.574 -119.033 -197.593C-118.279 -197.611 -117.581 -197.941 -116.94 -198.583C-116.299 -199.224 -115.974 -199.917 -115.964 -200.661C-115.936 -201.406 -116.205 -202.062 -116.77 -202.627C-117.336 -203.193 -117.996 -203.466 -118.75 -203.447C-119.486 -203.429 -120.174 -203.099 -120.815 -202.458C-121.456 -201.816 -121.791 -201.123 -121.819 -200.379C-121.829 -199.634 -121.55 -198.979 -120.985 -198.413ZM-113.513 -187.321C-114.314 -188.122 -114.871 -189.008 -115.182 -189.979C-115.474 -190.951 -115.502 -191.912 -115.267 -192.864C-115.031 -193.817 -114.536 -194.67 -113.782 -195.424C-113.027 -196.178 -112.174 -196.673 -111.222 -196.909C-110.27 -197.145 -109.313 -197.112 -108.351 -196.81C-107.371 -196.508 -106.48 -195.957 -105.678 -195.155C-104.877 -194.354 -104.33 -193.468 -104.038 -192.497C-103.736 -191.535 -103.703 -190.578 -103.939 -189.626C-104.174 -188.674 -104.669 -187.82 -105.424 -187.066C-106.178 -186.312 -107.031 -185.817 -107.983 -185.581C-108.936 -185.346 -109.897 -185.374 -110.868 -185.666C-111.83 -185.968 -112.712 -186.519 -113.513 -187.321ZM-111.703 -189.131C-111.137 -188.565 -110.487 -188.292 -109.751 -188.311C-108.997 -188.329 -108.299 -188.659 -107.658 -189.301C-107.017 -189.942 -106.692 -190.635 -106.682 -191.379C-106.654 -192.124 -106.923 -192.78 -107.488 -193.345C-108.054 -193.911 -108.714 -194.184 -109.468 -194.165C-110.213 -194.156 -110.906 -193.831 -111.547 -193.19C-112.188 -192.549 -112.518 -191.851 -112.537 -191.097C-112.547 -190.352 -112.268 -189.697 -111.703 -189.131ZM-93.2572 -182.508L-100.866 -174.9L-103.072 -177.106L-100.243 -179.934C-101.205 -180.255 -102.072 -180.802 -102.846 -181.575C-103.873 -182.602 -104.42 -183.611 -104.486 -184.601C-104.533 -185.591 -104.067 -186.576 -103.086 -187.557L-100.696 -189.947L-98.4898 -187.741L-100.738 -185.492C-101.2 -185.03 -101.417 -184.578 -101.389 -184.135C-101.351 -183.682 -101.106 -183.229 -100.654 -182.777C-100.078 -182.202 -99.4137 -181.782 -98.6595 -181.518L-95.4634 -184.714L-93.2572 -182.508ZM-91.1389 -180.39L-88.9468 -178.198L-91.9167 -175.228L-88.6074 -171.919L-85.6376 -174.889L-83.4314 -172.682L-91.0399 -165.074L-93.246 -167.28L-90.4035 -170.123L-93.7127 -173.432L-96.5553 -170.589L-98.7473 -172.781L-91.1389 -180.39ZM-85.4773 -159.285C-86.2786 -160.086 -86.8349 -160.973 -87.146 -161.944C-87.4383 -162.915 -87.4666 -163.876 -87.2309 -164.829C-86.9952 -165.781 -86.5002 -166.634 -85.746 -167.388C-84.9917 -168.143 -84.1385 -168.638 -83.1862 -168.873C-82.234 -169.109 -81.277 -169.076 -80.3154 -168.774C-79.3349 -168.473 -78.4439 -167.921 -77.6425 -167.12C-76.8411 -166.318 -76.2943 -165.432 -76.002 -164.461C-75.7003 -163.499 -75.6673 -162.542 -75.903 -161.59C-76.1387 -160.638 -76.6337 -159.785 -77.388 -159.03C-78.1422 -158.276 -78.9954 -157.781 -79.9477 -157.546C-80.8999 -157.31 -81.8616 -157.338 -82.8327 -157.63C-83.7943 -157.932 -84.6759 -158.484 -85.4773 -159.285ZM-83.6671 -161.095C-83.1014 -160.53 -82.4508 -160.256 -81.7155 -160.275C-80.9612 -160.294 -80.2635 -160.624 -79.6224 -161.265C-78.9813 -161.906 -78.656 -162.599 -78.6466 -163.344C-78.6183 -164.089 -78.887 -164.744 -79.4527 -165.31C-80.0184 -165.875 -80.6784 -166.149 -81.4326 -166.13C-82.1774 -166.12 -82.8704 -165.795 -83.5115 -165.154C-84.1526 -164.513 -84.4826 -163.815 -84.5015 -163.061C-84.5109 -162.316 -84.2328 -161.661 -83.6671 -161.095ZM-70.1006 -163.934L-67.4701 -161.303L-74.3715 -155.279L-76.1251 -157.032L-70.1006 -163.934ZM-78.798 -152.606C-79.1845 -152.992 -79.3872 -153.44 -79.4061 -153.949C-79.4061 -154.458 -79.227 -154.892 -78.8687 -155.25C-78.5104 -155.609 -78.0862 -155.778 -77.5959 -155.759C-77.0962 -155.75 -76.6484 -155.547 -76.2524 -155.151C-75.8564 -154.755 -75.6537 -154.307 -75.6443 -153.808C-75.6254 -153.318 -75.7951 -152.893 -76.1534 -152.535C-76.5117 -152.177 -76.9501 -152.002 -77.4686 -152.012C-77.9683 -152.021 -78.4114 -152.219 -78.798 -152.606ZM-66.8583 -140.553C-67.8859 -141.581 -68.593 -142.731 -68.9796 -144.004C-69.3567 -145.267 -69.3944 -146.521 -69.0927 -147.765C-68.7722 -149.01 -68.1263 -150.118 -67.1552 -151.089C-66.1841 -152.06 -65.0811 -152.701 -63.846 -153.012C-62.592 -153.323 -61.3334 -153.29 -60.07 -152.913C-58.7972 -152.527 -57.647 -151.819 -56.6193 -150.792C-55.5917 -149.764 -54.8893 -148.619 -54.5122 -147.355C-54.135 -146.092 -54.102 -144.833 -54.4132 -143.579C-54.7149 -142.335 -55.3513 -141.227 -56.3224 -140.256C-57.2935 -139.285 -58.406 -138.644 -59.6599 -138.333C-60.9044 -138.031 -62.1584 -138.069 -63.4217 -138.446C-64.6851 -138.823 -65.8306 -139.525 -66.8583 -140.553ZM-64.9066 -142.504C-64.3221 -141.92 -63.6621 -141.524 -62.9267 -141.317C-62.1819 -141.119 -61.4371 -141.128 -60.6923 -141.345C-59.938 -141.552 -59.2545 -141.962 -58.6417 -142.575C-58.0288 -143.188 -57.6187 -143.872 -57.4113 -144.626C-57.1945 -145.371 -57.1897 -146.111 -57.3972 -146.846C-57.5952 -147.591 -57.9864 -148.256 -58.571 -148.84C-59.1555 -149.425 -59.8202 -149.816 -60.565 -150.014C-61.3004 -150.221 -62.0452 -150.221 -62.7995 -150.014C-63.5443 -149.797 -64.2231 -149.382 -64.8359 -148.769C-65.4488 -148.157 -65.8636 -147.478 -66.0804 -146.733C-66.2879 -145.979 -66.2926 -145.229 -66.0946 -144.484C-65.8872 -143.749 -65.4912 -143.089 -64.9066 -142.504ZM-49.4751 -129.279L-50.5358 -130.34L-53.4208 -127.455L-55.5987 -129.633L-52.7137 -132.518L-53.7743 -133.578L-58.2715 -132.306L-60.8737 -134.908L-54.5522 -136.449L-53.0955 -142.346L-50.7621 -140.013L-52.0349 -135.374L-50.9459 -134.285L-47.9902 -137.241L-45.8123 -135.063L-48.768 -132.108L-47.6932 -131.033L-43.0405 -132.291L-40.707 -129.958L-46.6043 -128.501L-48.1316 -122.166L-50.7479 -124.782L-49.4751 -129.279ZM-39.3764 -128.627L-37.1844 -126.435L-41.7099 -121.91L-33.4792 -122.73L-31.4568 -120.708L-39.0653 -113.099L-41.2573 -115.291L-36.7319 -119.817L-44.9484 -118.982L-46.9849 -121.019L-39.3764 -128.627ZM-26.6066 -104.261L-30.0573 -100.81L-32.1079 -102.861L-30.4674 -104.501L-35.8132 -109.847L-37.4537 -108.207L-39.5043 -110.257L-36.0536 -113.708L-35.7425 -113.397C-35.2616 -112.935 -34.6582 -112.888 -33.9323 -113.255C-33.2063 -113.623 -32.3154 -114.288 -31.2594 -115.249L-28.53 -117.781L-21.8973 -111.148L-27.6956 -105.35L-26.6066 -104.261ZM-29.4209 -113.1C-30.2223 -112.355 -30.9153 -111.785 -31.4998 -111.389C-32.0749 -110.983 -32.6123 -110.776 -33.112 -110.766L-29.9018 -107.556L-25.9137 -111.544L-28.4027 -114.033L-29.4209 -113.1ZM-16.3512 -105.828C-15.1727 -104.65 -14.5504 -103.462 -14.4844 -102.265C-14.409 -101.077 -14.937 -99.917 -16.0683 -98.7856L-20.41 -94.444L-22.4747 -96.5087L-21.5272 -97.4562C-22.6491 -97.164 -23.7758 -97.5835 -24.9072 -98.7149C-25.4917 -99.2994 -25.9018 -99.9076 -26.1375 -100.539C-26.3638 -101.161 -26.4157 -101.76 -26.2931 -102.335C-26.1705 -102.91 -25.8877 -103.42 -25.4446 -103.863C-24.7375 -104.57 -23.9172 -104.862 -22.9838 -104.739C-22.041 -104.607 -21.0134 -103.985 -19.9008 -102.873L-18.1472 -101.119C-17.6664 -101.6 -17.4448 -102.114 -17.4825 -102.661C-17.5108 -103.217 -17.8172 -103.787 -18.4018 -104.372C-18.8072 -104.777 -19.2739 -105.112 -19.8018 -105.376C-20.311 -105.64 -20.8107 -105.8 -21.3009 -105.857L-20.5514 -108.19C-19.8443 -108.068 -19.123 -107.799 -18.3876 -107.384C-17.6428 -106.96 -16.964 -106.441 -16.3512 -105.828ZM-22.8707 -99.6483C-22.4936 -99.2712 -22.074 -99.0213 -21.612 -98.8987C-21.1406 -98.7856 -20.6739 -98.8375 -20.212 -99.0543L-19.4342 -99.8321L-20.9474 -101.345C-21.8525 -102.25 -22.602 -102.406 -23.196 -101.812C-23.4788 -101.529 -23.5967 -101.194 -23.5495 -100.808C-23.4835 -100.421 -23.2572 -100.035 -22.8707 -99.6483ZM-7.32119 -88.9071C-7.34947 -88.8788 -7.56161 -88.695 -7.95759 -88.3556L-13.7134 -94.1114C-14.0811 -93.5363 -14.2084 -92.9188 -14.0953 -92.2588C-13.9821 -91.5988 -13.638 -90.9813 -13.0629 -90.4062C-12.6669 -90.0102 -12.2615 -89.7179 -11.8467 -89.5294C-11.413 -89.3408 -10.9369 -89.2418 -10.4183 -89.2324L-10.5173 -86.7858C-12.0541 -86.6821 -13.5107 -87.3185 -14.8872 -88.695C-15.7452 -89.5529 -16.3392 -90.4769 -16.6691 -91.4668C-16.9897 -92.4662 -17.0321 -93.442 -16.7964 -94.3943C-16.5607 -95.3465 -16.0657 -96.1997 -15.3115 -96.954C-14.5667 -97.6988 -13.7229 -98.1938 -12.7801 -98.4389C-11.8184 -98.684 -10.8662 -98.6652 -9.92334 -98.3823C-8.96168 -98.0995 -8.09901 -97.5762 -7.33533 -96.8126C-6.59051 -96.0677 -6.07668 -95.2334 -5.79384 -94.3094C-5.511 -93.3854 -5.50157 -92.4521 -5.76555 -91.5093C-6.01069 -90.5665 -6.52923 -89.6991 -7.32119 -88.9071ZM-8.98996 -95.1296C-9.48965 -95.6293 -10.0506 -95.9075 -10.6729 -95.964C-11.2951 -96.0206 -11.8891 -95.8415 -12.4548 -95.4266L-8.70712 -91.679C-8.30171 -92.2352 -8.12729 -92.8245 -8.18386 -93.4467C-8.231 -94.0784 -8.4997 -94.6394 -8.98996 -95.1296ZM2.52207 -83.1085L-0.0518007 -85.6824L-5.85008 -79.8841L-8.04211 -82.0761L-2.24383 -87.8744L-4.8177 -90.4483L-3.00751 -92.2585L4.33226 -84.9187L2.52207 -83.1085ZM1.0894 -72.7183C0.278586 -73.5292 -0.287099 -74.4248 -0.607654 -75.4053C-0.909353 -76.3859 -0.947065 -77.357 -0.720791 -78.3186C-0.485089 -79.2709 0.00988624 -80.1241 0.764134 -80.8784C1.51838 -81.6326 2.37162 -82.1276 3.32386 -82.3633C4.28553 -82.5895 5.25191 -82.5471 6.223 -82.236C7.21295 -81.9249 8.11333 -81.3639 8.92415 -80.5531C9.72553 -79.7517 10.2535 -78.8843 10.5081 -77.9509C10.7815 -77.0175 10.7438 -76.103 10.3949 -75.2074L7.76449 -75.9993C8.06619 -77.093 7.84463 -78.0122 7.09981 -78.757C6.5247 -79.3321 5.86002 -79.6197 5.10577 -79.6197C4.35152 -79.6197 3.64913 -79.2944 2.99859 -78.6439C2.34805 -77.9934 2.02278 -77.291 2.02278 -76.5367C2.02278 -75.7825 2.31034 -75.1178 2.88545 -74.5427C3.6397 -73.7884 4.55894 -73.5669 5.64317 -73.878L6.42099 -71.2334C5.54418 -70.9034 4.63436 -70.8704 3.69156 -71.1344C2.75817 -71.389 1.89079 -71.917 1.0894 -72.7183ZM20.1265 -69.1245L12.518 -61.516L10.5523 -63.4818L12.7301 -65.6596L11.1038 -67.286L7.48342 -66.5506L5.13582 -68.8982L9.36432 -69.6477C9.04376 -70.3831 8.93534 -71.0855 9.03905 -71.7549C9.16162 -72.4243 9.50103 -73.0371 10.0573 -73.5934C10.953 -74.4891 11.9618 -74.8567 13.0837 -74.6965C14.2245 -74.5362 15.3606 -73.8904 16.492 -72.759L20.1265 -69.1245ZM14.7383 -70.9205C14.2669 -71.3919 13.8238 -71.6653 13.409 -71.7408C13.0036 -71.8068 12.6123 -71.6512 12.2352 -71.2741C11.858 -70.8969 11.6931 -70.5057 11.7402 -70.1003C11.8062 -69.6949 12.0749 -69.2565 12.5463 -68.7851L14.2009 -67.1304L16.3647 -69.2942L14.7383 -70.9205ZM30.8481 -58.6291C31.5552 -57.922 32.0313 -57.1159 32.2765 -56.2108C32.5404 -55.3057 32.5404 -54.3912 32.2765 -53.4672C32.0219 -52.5527 31.5034 -51.7042 30.7208 -50.9217C29.9383 -50.1391 29.085 -49.6159 28.1611 -49.3519C27.2466 -49.0973 26.332 -49.0973 25.4175 -49.3519C24.5219 -49.6064 23.7205 -50.0873 23.0134 -50.7944C22.0423 -51.7655 21.585 -52.8356 21.6416 -54.0046L18.0919 -50.455L15.8857 -52.6611L26.2378 -63.0132L28.3449 -60.906L27.4681 -60.0292C28.6749 -60.1423 29.8016 -59.6756 30.8481 -58.6291ZM24.4417 -52.9864C25.0074 -52.4207 25.6579 -52.1473 26.3933 -52.1662C27.1476 -52.185 27.8453 -52.515 28.4864 -53.1561C29.1275 -53.7972 29.4527 -54.4902 29.4622 -55.235C29.4905 -55.9798 29.2218 -56.6351 28.6561 -57.2008C28.0904 -57.7665 27.4304 -58.0399 26.6762 -58.021C25.9408 -58.0022 25.2525 -57.6722 24.6114 -57.0311C23.9703 -56.39 23.6356 -55.697 23.6073 -54.9522C23.5979 -54.2073 23.876 -53.5521 24.4417 -52.9864ZM31.9135 -41.8942C31.1121 -42.6956 30.5559 -43.5819 30.2447 -44.5529C29.9525 -45.524 29.9242 -46.4857 30.1599 -47.4379C30.3956 -48.3902 30.8906 -49.2434 31.6448 -49.9977C32.3991 -50.7519 33.2523 -51.2469 34.2045 -51.4826C35.1568 -51.7183 36.1137 -51.6853 37.0754 -51.3836C38.0559 -51.0819 38.9469 -50.5304 39.7483 -49.729C40.5496 -48.9276 41.0965 -48.0413 41.3887 -47.0702C41.6904 -46.1086 41.7234 -45.1516 41.4877 -44.1994C41.252 -43.2472 40.7571 -42.3939 40.0028 -41.6397C39.2486 -40.8854 38.3953 -40.3904 37.4431 -40.1547C36.4909 -39.919 35.5292 -39.9473 34.5581 -40.2396C33.5964 -40.5413 32.7149 -41.0928 31.9135 -41.8942ZM33.7237 -43.7044C34.2894 -43.1387 34.9399 -42.8653 35.6753 -42.8842C36.4296 -42.903 37.1272 -43.233 37.7684 -43.8741C38.4095 -44.5152 38.7347 -45.2082 38.7442 -45.953C38.7724 -46.6978 38.5037 -47.3531 37.9381 -47.9188C37.3724 -48.4845 36.7124 -48.7579 35.9582 -48.739C35.2133 -48.7296 34.5204 -48.4043 33.8793 -47.7632C33.2382 -47.1221 32.9082 -46.4244 32.8893 -45.6702C32.8799 -44.9254 33.158 -44.2701 33.7237 -43.7044ZM41.2232 -32.5845C40.4124 -33.3953 39.8467 -34.291 39.5262 -35.2715C39.2245 -36.252 39.1868 -37.2231 39.413 -38.1848C39.6487 -39.137 40.1437 -39.9903 40.898 -40.7445C41.6522 -41.4988 42.5055 -41.9937 43.4577 -42.2294C44.4194 -42.4557 45.3857 -42.4133 46.3568 -42.1022C47.3468 -41.791 48.2472 -41.2301 49.058 -40.4192C49.8594 -39.6179 50.3873 -38.7505 50.6419 -37.8171C50.9153 -36.8837 50.8776 -35.9692 50.5288 -35.0735L47.8983 -35.8655C48.2 -36.9591 47.9785 -37.8784 47.2336 -38.6232C46.6585 -39.1983 45.9939 -39.4859 45.2396 -39.4859C44.4854 -39.4859 43.783 -39.1606 43.1324 -38.5101C42.4819 -37.8595 42.1566 -37.1571 42.1566 -36.4029C42.1566 -35.6486 42.4442 -34.984 43.0193 -34.4088C43.7735 -33.6546 44.6928 -33.433 45.777 -33.7442L46.5548 -31.0996C45.678 -30.7696 44.7682 -30.7366 43.8254 -31.0006C42.892 -31.2551 42.0246 -31.7831 41.2232 -32.5845ZM58.2482 -27.3824L55.6743 -29.9563L49.876 -24.158L47.684 -26.35L53.4823 -32.1483L50.9084 -34.7222L52.7186 -36.5324L60.0584 -29.1926L58.2482 -27.3824ZM68.0113 -9.64308L64.5323 -6.16412L62.4817 -8.21473L64.1505 -9.8835L57.631 -16.403L65.2395 -24.0115L67.4315 -21.8195L61.6332 -16.0212L64.7021 -12.9523L70.5003 -18.7506L72.7065 -16.5444L66.9082 -10.7462L68.0113 -9.64308ZM78.7608 -2.82514C78.7325 -2.79685 78.5204 -2.613 78.1244 -2.27359L72.3685 -8.02944C72.0008 -7.45433 71.8736 -6.83679 71.9867 -6.17682C72.0998 -5.51686 72.444 -4.89932 73.0191 -4.3242C73.415 -3.92822 73.8205 -3.63595 74.2353 -3.44739C74.669 -3.25883 75.1451 -3.15983 75.6636 -3.15041L75.5646 -0.703817C74.0279 -0.600108 72.5712 -1.2365 71.1947 -2.613C70.3368 -3.47096 69.7428 -4.39491 69.4128 -5.38486C69.0923 -6.38424 69.0498 -7.36005 69.2855 -8.31229C69.5212 -9.26452 70.0162 -10.1178 70.7705 -10.872C71.5153 -11.6168 72.3591 -12.1118 73.3019 -12.3569C74.2636 -12.6021 75.2158 -12.5832 76.1586 -12.3004C77.1203 -12.0175 77.983 -11.4943 78.7466 -10.7306C79.4914 -9.98577 80.0053 -9.15139 80.2881 -8.22743C80.571 -7.30348 80.5804 -6.3701 80.3164 -5.42729C80.0713 -4.48448 79.5527 -3.6171 78.7608 -2.82514ZM77.092 -9.04768C76.5923 -9.54737 76.0313 -9.82549 75.4091 -9.88206C74.7868 -9.93863 74.1929 -9.7595 73.6272 -9.34466L77.3748 -5.597C77.7803 -6.15325 77.9547 -6.74251 77.8981 -7.36476C77.851 -7.99644 77.5823 -8.55742 77.092 -9.04768ZM84.2844 -4.96657L86.4764 -2.77453L83.5066 0.195314L86.8158 3.50457L89.7857 0.534725L91.9918 2.7409L84.3834 10.3494L82.1772 8.14319L85.0198 5.30063L81.7105 1.99137L78.8679 4.83393L76.6759 2.6419L84.2844 -4.96657ZM96.0695 2.23653L98.7 4.86697L91.7986 10.8915L90.045 9.1379L96.0695 2.23653ZM87.3721 13.5644C86.9856 13.1778 86.7829 12.73 86.764 12.2209C86.764 11.7118 86.9431 11.2781 87.3014 10.9198C87.6597 10.5615 88.0839 10.3918 88.5742 10.4107C89.0739 10.4201 89.5217 10.6228 89.9177 11.0188C90.3137 11.4148 90.5164 11.8626 90.5258 12.3623C90.5447 12.8526 90.375 13.2768 90.0167 13.6351C89.6584 13.9934 89.22 14.1678 88.7015 14.1584C88.2018 14.1489 87.7587 13.9509 87.3721 13.5644ZM99.2694 25.5748C98.2606 24.566 97.5629 23.4346 97.1764 22.1807C96.8087 20.9268 96.7757 19.6775 97.0774 18.433C97.3979 17.1885 98.0485 16.076 99.029 15.0955C100.01 14.115 101.117 13.4691 102.352 13.158C103.606 12.8469 104.856 12.8799 106.1 13.257C107.363 13.6341 108.504 14.3318 109.522 15.3501C110.38 16.208 111.003 17.132 111.389 18.1219C111.785 19.1213 111.936 20.1395 111.842 21.1766L109.013 21.0635C109.117 19.621 108.674 18.4048 107.684 17.4148C107.071 16.802 106.388 16.3919 105.633 16.1844C104.889 15.9676 104.139 15.9629 103.385 16.1703C102.64 16.3871 101.961 16.802 101.348 17.4148C100.735 18.0276 100.321 18.7064 100.104 19.4513C99.8964 20.2055 99.8964 20.9598 100.104 21.714C100.321 22.4588 100.735 23.1377 101.348 23.7505C102.338 24.7404 103.559 25.1788 105.011 25.0657L105.124 27.8941C104.078 27.9978 103.055 27.8517 102.055 27.4557C101.056 27.0597 100.127 26.4328 99.2694 25.5748ZM117.054 27.5771C117.761 28.2842 118.238 29.0904 118.483 29.9954C118.747 30.9005 118.747 31.8151 118.483 32.739C118.228 33.6535 117.71 34.5021 116.927 35.2846C116.145 36.0671 115.291 36.5904 114.367 36.8544C113.453 37.1089 112.538 37.1089 111.624 36.8544C110.728 36.5998 109.927 36.119 109.22 35.4119C108.249 34.4408 107.791 33.3707 107.848 32.2016L104.298 35.7513L102.092 33.5451L112.444 23.1931L114.551 25.3003L113.674 26.1771C114.881 26.0639 116.008 26.5306 117.054 27.5771ZM110.648 33.2199C111.214 33.7855 111.864 34.059 112.6 34.0401C113.354 34.0212 114.052 33.6913 114.693 33.0501C115.334 32.409 115.659 31.7161 115.668 30.9713C115.697 30.2264 115.428 29.5712 114.862 29.0055C114.297 28.4398 113.637 28.1664 112.882 28.1853C112.147 28.2041 111.459 28.5341 110.818 29.1752C110.177 29.8163 109.842 30.5093 109.814 31.2541C109.804 31.9989 110.082 32.6542 110.648 33.2199ZM118.12 44.312C117.318 43.5107 116.762 42.6244 116.451 41.6533C116.159 40.6822 116.13 39.7206 116.366 38.7683C116.602 37.8161 117.097 36.9628 117.851 36.2086C118.605 35.4543 119.459 34.9594 120.411 34.7237C121.363 34.488 122.32 34.521 123.282 34.8227C124.262 35.1244 125.153 35.6759 125.955 36.4773C126.756 37.2787 127.303 38.1649 127.595 39.136C127.897 40.0977 127.93 41.0546 127.694 42.0069C127.458 42.9591 126.963 43.8124 126.209 44.5666C125.455 45.3208 124.602 45.8158 123.649 46.0515C122.697 46.2872 121.735 46.2589 120.764 45.9667C119.803 45.665 118.921 45.1134 118.12 44.312ZM119.93 42.5018C120.496 43.0675 121.146 43.3409 121.882 43.3221C122.636 43.3032 123.334 42.9733 123.975 42.3321C124.616 41.691 124.941 40.9981 124.95 40.2532C124.979 39.5084 124.71 38.8532 124.144 38.2875C123.579 37.7218 122.919 37.4484 122.164 37.4672C121.42 37.4767 120.727 37.8019 120.086 38.4431C119.444 39.0842 119.114 39.7818 119.096 40.5361C119.086 41.2809 119.364 41.9362 119.93 42.5018ZM138.376 49.1246L130.767 56.733L128.561 54.5269L131.389 51.6984C130.428 51.3779 129.56 50.831 128.787 50.0579C127.759 49.0303 127.213 48.0215 127.147 47.0315C127.1 46.0416 127.566 45.0563 128.547 44.0758L130.937 41.6858L133.143 43.892L130.894 46.1406C130.432 46.6026 130.215 47.0551 130.244 47.4982C130.281 47.9508 130.527 48.4033 130.979 48.8559C131.554 49.431 132.219 49.8505 132.973 50.1145L136.169 46.9184L138.376 49.1246ZM140.494 51.2429L142.686 53.4349L139.716 56.4048L143.025 59.714L145.995 56.7442L148.201 58.9504L140.593 66.5588L138.387 64.3527L141.229 61.5101L137.92 58.2008L135.077 61.0434L132.885 58.8514L140.494 51.2429ZM146.155 72.3477C145.354 71.5463 144.798 70.6601 144.487 69.689C144.194 68.7179 144.166 67.7562 144.402 66.804C144.638 65.8518 145.133 64.9985 145.887 64.2443C146.641 63.49 147.494 62.9951 148.446 62.7594C149.399 62.5237 150.356 62.5566 151.317 62.8583C152.298 63.16 153.189 63.7116 153.99 64.513C154.792 65.3144 155.338 66.2006 155.631 67.1717C155.932 68.1334 155.965 69.0903 155.73 70.0426C155.494 70.9948 154.999 71.848 154.245 72.6023C153.491 73.3565 152.637 73.8515 151.685 74.0872C150.733 74.3229 149.771 74.2946 148.8 74.0024C147.838 73.7007 146.957 73.1491 146.155 72.3477ZM147.966 70.5375C148.531 71.1032 149.182 71.3766 149.917 71.3578C150.672 71.3389 151.369 71.0089 152.01 70.3678C152.651 69.7267 152.977 69.0337 152.986 68.2889C153.014 67.5441 152.746 66.8889 152.18 66.3232C151.614 65.7575 150.954 65.4841 150.2 65.5029C149.455 65.5124 148.762 65.8376 148.121 66.4787C147.48 67.1198 147.15 67.8175 147.131 68.5718C147.122 69.3166 147.4 69.9718 147.966 70.5375ZM161.532 67.6992L164.163 70.3296L157.261 76.3541L155.508 74.6005L161.532 67.6992ZM152.835 79.027C152.448 78.6405 152.245 78.1926 152.227 77.6835C152.227 77.1744 152.406 76.7407 152.764 76.3824C153.122 76.0242 153.547 75.8545 154.037 75.8733C154.537 75.8827 154.984 76.0854 155.38 76.4814C155.776 76.8774 155.979 77.3252 155.988 77.8249C156.007 78.3152 155.838 78.7395 155.479 79.0977C155.121 79.456 154.683 79.6304 154.164 79.621C153.664 79.6115 153.221 79.4136 152.835 79.027ZM164.774 91.0799C163.747 90.0522 163.04 88.902 162.653 87.6292C162.276 86.3658 162.238 85.1119 162.54 83.8674C162.861 82.6229 163.506 81.5151 164.477 80.544C165.449 79.5729 166.552 78.9318 167.787 78.6206C169.041 78.3095 170.299 78.3425 171.563 78.7196C172.835 79.1062 173.986 79.8133 175.013 80.841C176.041 81.8686 176.743 83.0141 177.121 84.2775C177.498 85.5409 177.531 86.7995 177.22 88.0534C176.918 89.298 176.281 90.4058 175.31 91.3769C174.339 92.3479 173.227 92.9891 171.973 93.3002C170.728 93.6019 169.474 93.5642 168.211 93.187C166.948 92.8099 165.802 92.1075 164.774 91.0799ZM166.726 89.1283C167.311 89.7128 167.971 90.1088 168.706 90.3162C169.451 90.5142 170.196 90.5048 170.94 90.2879C171.695 90.0805 172.378 89.6704 172.991 89.0575C173.604 88.4447 174.014 87.7612 174.221 87.0069C174.438 86.2621 174.443 85.522 174.236 84.7866C174.038 84.0418 173.646 83.3771 173.062 82.7926C172.477 82.208 171.813 81.8168 171.068 81.6188C170.332 81.4114 169.587 81.4114 168.833 81.6188C168.088 81.8356 167.41 82.2505 166.797 82.8633C166.184 83.4761 165.769 84.1549 165.552 84.8998C165.345 85.654 165.34 86.4035 165.538 87.1484C165.746 87.8837 166.142 88.5437 166.726 89.1283ZM182.158 102.354L181.097 101.293L178.212 104.178L176.034 102L178.919 99.115L177.858 98.0544L173.361 99.3272L170.759 96.725L177.081 95.1835L178.537 89.2862L180.871 91.6197L179.598 96.2583L180.687 97.3473L183.642 94.3916L185.82 96.5694L182.865 99.5252L183.939 100.6L188.592 99.3413L190.926 101.675L185.028 103.131L183.501 109.467L180.885 106.851L182.158 102.354ZM192.256 103.005L194.448 105.197L189.923 109.723L198.154 108.903L200.176 110.925L192.567 118.533L190.375 116.341L194.901 111.816L186.684 112.65L184.648 110.614L192.256 103.005ZM205.026 127.372L201.575 130.822L199.525 128.772L201.165 127.131L195.82 121.786L194.179 123.426L192.128 121.375L195.579 117.925L195.89 118.236C196.371 118.698 196.974 118.745 197.7 118.377C198.426 118.01 199.317 117.345 200.373 116.383L203.103 113.852L209.735 120.484L203.937 126.283L205.026 127.372ZM202.212 118.533C201.41 119.278 200.717 119.848 200.133 120.244C199.558 120.649 199.02 120.857 198.521 120.866L201.731 124.077L205.719 120.088L203.23 117.599L202.212 118.533ZM215.282 125.804C216.46 126.983 217.082 128.171 217.148 129.368C217.224 130.556 216.696 131.716 215.564 132.847L211.223 137.189L209.158 135.124L210.106 134.176C208.984 134.469 207.857 134.049 206.726 132.918C206.141 132.333 205.731 131.725 205.495 131.093C205.269 130.471 205.217 129.873 205.34 129.297C205.462 128.722 205.745 128.213 206.188 127.77C206.895 127.063 207.716 126.771 208.649 126.893C209.592 127.025 210.619 127.648 211.732 128.76L213.485 130.514C213.966 130.033 214.188 129.519 214.15 128.972C214.122 128.416 213.815 127.846 213.231 127.261C212.826 126.856 212.359 126.521 211.831 126.257C211.322 125.993 210.822 125.833 210.332 125.776L211.081 123.443C211.788 123.565 212.51 123.834 213.245 124.249C213.99 124.673 214.669 125.192 215.282 125.804ZM208.762 131.984C209.139 132.362 209.559 132.611 210.021 132.734C210.492 132.847 210.959 132.795 211.421 132.578L212.199 131.801L210.685 130.287C209.78 129.382 209.031 129.227 208.437 129.821C208.154 130.104 208.036 130.438 208.083 130.825C208.149 131.211 208.375 131.598 208.762 131.984ZM224.312 142.726C224.283 142.754 224.071 142.938 223.675 143.277L217.919 137.521C217.552 138.096 217.424 138.714 217.537 139.374C217.651 140.034 217.995 140.651 218.57 141.227C218.966 141.623 219.371 141.915 219.786 142.103C220.22 142.292 220.696 142.391 221.214 142.4L221.115 144.847C219.579 144.951 218.122 144.314 216.745 142.938C215.888 142.08 215.294 141.156 214.964 140.166C214.643 139.167 214.601 138.191 214.836 137.238C215.072 136.286 215.567 135.433 216.321 134.679C217.066 133.934 217.91 133.439 218.853 133.194C219.814 132.949 220.767 132.968 221.709 133.25C222.671 133.533 223.534 134.056 224.297 134.82C225.042 135.565 225.556 136.399 225.839 137.323C226.122 138.247 226.131 139.181 225.867 140.123C225.622 141.066 225.103 141.934 224.312 142.726ZM222.643 136.503C222.143 136.003 221.582 135.725 220.96 135.669C220.338 135.612 219.744 135.791 219.178 136.206L222.926 139.954C223.331 139.398 223.505 138.808 223.449 138.186C223.402 137.554 223.133 136.993 222.643 136.503ZM234.155 148.524L231.581 145.95L225.783 151.749L223.591 149.557L229.389 143.758L226.815 141.184L228.625 139.374L235.965 146.714L234.155 148.524ZM232.722 158.914C231.911 158.104 231.346 157.208 231.025 156.227C230.723 155.247 230.686 154.276 230.912 153.314C231.148 152.362 231.643 151.509 232.397 150.754C233.151 150 234.004 149.505 234.957 149.269C235.918 149.043 236.885 149.086 237.856 149.397C238.846 149.708 239.746 150.269 240.557 151.08C241.358 151.881 241.886 152.748 242.141 153.682C242.414 154.615 242.376 155.53 242.028 156.425L239.397 155.633C239.699 154.54 239.477 153.621 238.733 152.876C238.157 152.301 237.493 152.013 236.738 152.013C235.984 152.013 235.282 152.338 234.631 152.989C233.981 153.639 233.655 154.342 233.655 155.096C233.655 155.85 233.943 156.515 234.518 157.09C235.272 157.844 236.192 158.066 237.276 157.755L238.054 160.399C237.177 160.729 236.267 160.762 235.324 160.498C234.391 160.244 233.523 159.716 232.722 158.914ZM251.759 162.508L244.151 170.117L242.185 168.151L244.363 165.973L242.737 164.347L239.116 165.082L236.769 162.735L240.997 161.985C240.676 161.25 240.568 160.547 240.672 159.878C240.794 159.208 241.134 158.596 241.69 158.039C242.586 157.144 243.594 156.776 244.716 156.936C245.857 157.097 246.993 157.742 248.125 158.874L251.759 162.508ZM246.371 160.712C245.9 160.241 245.457 159.967 245.042 159.892C244.636 159.826 244.245 159.982 243.868 160.359C243.491 160.736 243.326 161.127 243.373 161.532C243.439 161.938 243.708 162.376 244.179 162.848L245.834 164.502L247.997 162.339L246.371 160.712ZM262.481 173.004C263.188 173.711 263.664 174.517 263.909 175.422C264.173 176.327 264.173 177.242 263.909 178.165C263.655 179.08 263.136 179.929 262.354 180.711C261.571 181.494 260.718 182.017 259.794 182.281C258.879 182.535 257.965 182.535 257.05 182.281C256.155 182.026 255.353 181.545 254.646 180.838C253.675 179.867 253.218 178.797 253.274 177.628L249.725 181.178L247.518 178.972L257.87 168.62L259.978 170.727L259.101 171.604C260.308 171.49 261.434 171.957 262.481 173.004ZM256.074 178.646C256.64 179.212 257.291 179.485 258.026 179.467C258.78 179.448 259.478 179.118 260.119 178.477C260.76 177.836 261.085 177.143 261.095 176.398C261.123 175.653 260.854 174.998 260.289 174.432C259.723 173.866 259.063 173.593 258.309 173.612C257.573 173.631 256.885 173.961 256.244 174.602C255.603 175.243 255.268 175.936 255.24 176.681C255.231 177.425 255.509 178.081 256.074 178.646ZM263.546 189.739C262.745 188.937 262.189 188.051 261.877 187.08C261.585 186.109 261.557 185.147 261.793 184.195C262.028 183.243 262.523 182.389 263.278 181.635C264.032 180.881 264.885 180.386 265.837 180.15C266.789 179.914 267.746 179.947 268.708 180.249C269.689 180.551 270.58 181.102 271.381 181.904C272.182 182.705 272.729 183.591 273.021 184.562C273.323 185.524 273.356 186.481 273.12 187.433C272.885 188.386 272.39 189.239 271.636 189.993C270.881 190.747 270.028 191.242 269.076 191.478C268.124 191.714 267.162 191.685 266.191 191.393C265.229 191.091 264.348 190.54 263.546 189.739ZM265.356 187.928C265.922 188.494 266.573 188.767 267.308 188.749C268.062 188.73 268.76 188.4 269.401 187.759C270.042 187.117 270.367 186.425 270.377 185.68C270.405 184.935 270.136 184.28 269.571 183.714C269.005 183.148 268.345 182.875 267.591 182.894C266.846 182.903 266.153 183.228 265.512 183.87C264.871 184.511 264.541 185.208 264.522 185.963C264.513 186.707 264.791 187.363 265.356 187.928ZM272.856 199.048C272.045 198.237 271.479 197.342 271.159 196.361C270.857 195.381 270.819 194.41 271.046 193.448C271.281 192.496 271.776 191.642 272.531 190.888C273.285 190.134 274.138 189.639 275.09 189.403C276.052 189.177 277.018 189.219 277.99 189.531C278.979 189.842 279.88 190.403 280.691 191.213C281.492 192.015 282.02 192.882 282.275 193.816C282.548 194.749 282.51 195.664 282.161 196.559L279.531 195.767C279.833 194.674 279.611 193.754 278.866 193.01C278.291 192.434 277.627 192.147 276.872 192.147C276.118 192.147 275.416 192.472 274.765 193.123C274.115 193.773 273.789 194.476 273.789 195.23C273.789 195.984 274.077 196.649 274.652 197.224C275.406 197.978 276.325 198.2 277.41 197.889L278.188 200.533C277.311 200.863 276.401 200.896 275.458 200.632C274.525 200.378 273.657 199.85 272.856 199.048ZM289.881 204.25L287.307 201.676L281.509 207.475L279.317 205.283L285.115 199.484L282.541 196.911L284.351 195.1L291.691 202.44L289.881 204.25ZM299.644 221.99L296.165 225.469L294.114 223.418L295.783 221.749L289.264 215.23L296.872 207.621L299.064 209.813L293.266 215.612L296.335 218.68L302.133 212.882L304.339 215.088L298.541 220.887L299.644 221.99ZM310.393 228.808C310.365 228.836 310.153 229.02 309.757 229.359L304.001 223.603C303.634 224.178 303.506 224.796 303.619 225.456C303.733 226.116 304.077 226.733 304.652 227.309C305.048 227.705 305.453 227.997 305.868 228.185C306.302 228.374 306.778 228.473 307.296 228.482L307.197 230.929C305.661 231.033 304.204 230.396 302.827 229.02C301.969 228.162 301.376 227.238 301.046 226.248C300.725 225.248 300.683 224.273 300.918 223.32C301.154 222.368 301.649 221.515 302.403 220.761C303.148 220.016 303.992 219.521 304.935 219.276C305.896 219.031 306.849 219.05 307.791 219.332C308.753 219.615 309.616 220.138 310.379 220.902C311.124 221.647 311.638 222.481 311.921 223.405C312.204 224.329 312.213 225.263 311.949 226.205C311.704 227.148 311.185 228.016 310.393 228.808ZM308.725 222.585C308.225 222.085 307.664 221.807 307.042 221.751C306.42 221.694 305.826 221.873 305.26 222.288L309.008 226.036C309.413 225.479 309.587 224.89 309.531 224.268C309.484 223.636 309.215 223.075 308.725 222.585ZM315.917 226.666L318.109 228.858L315.139 231.828L318.449 235.137L321.418 232.167L323.625 234.374L316.016 241.982L313.81 239.776L316.652 236.933L313.343 233.624L310.501 236.467L308.309 234.275L315.917 226.666ZM327.702 233.869L330.333 236.5L323.431 242.524L321.678 240.771L327.702 233.869ZM319.005 245.197C318.618 244.811 318.416 244.363 318.397 243.854C318.397 243.344 318.576 242.911 318.934 242.553C319.292 242.194 319.717 242.025 320.207 242.043C320.707 242.053 321.154 242.256 321.55 242.652C321.946 243.048 322.149 243.495 322.159 243.995C322.177 244.485 322.008 244.91 321.649 245.268C321.291 245.626 320.853 245.801 320.334 245.791C319.834 245.782 319.391 245.584 319.005 245.197ZM330.902 257.208C329.893 256.199 329.196 255.067 328.809 253.813C328.441 252.559 328.408 251.31 328.71 250.066C329.031 248.821 329.681 247.709 330.662 246.728C331.642 245.748 332.75 245.102 333.985 244.791C335.239 244.48 336.488 244.513 337.733 244.89C338.996 245.267 340.137 245.965 341.155 246.983C342.013 247.841 342.635 248.765 343.022 249.755C343.418 250.754 343.569 251.772 343.474 252.809L340.646 252.696C340.75 251.254 340.307 250.037 339.317 249.048C338.704 248.435 338.02 248.025 337.266 247.817C336.521 247.6 335.772 247.596 335.017 247.803C334.273 248.02 333.594 248.435 332.981 249.048C332.368 249.66 331.953 250.339 331.737 251.084C331.529 251.838 331.529 252.592 331.737 253.347C331.953 254.092 332.368 254.77 332.981 255.383C333.971 256.373 335.192 256.812 336.644 256.698L336.757 259.527C335.71 259.631 334.687 259.484 333.688 259.088C332.689 258.692 331.76 258.065 330.902 257.208ZM348.687 259.21C349.394 259.917 349.87 260.723 350.115 261.628C350.379 262.533 350.379 263.448 350.115 264.372C349.861 265.286 349.342 266.135 348.56 266.917C347.777 267.7 346.924 268.223 346 268.487C345.086 268.742 344.171 268.742 343.256 268.487C342.361 268.233 341.559 267.752 340.852 267.045C339.881 266.074 339.424 265.003 339.481 263.834L335.931 267.384L333.725 265.178L344.077 254.826L346.184 256.933L345.307 257.81C346.514 257.697 347.641 258.163 348.687 259.21ZM342.281 264.853C342.846 265.418 343.497 265.692 344.232 265.673C344.987 265.654 345.684 265.324 346.325 264.683C346.966 264.042 347.292 263.349 347.301 262.604C347.329 261.859 347.061 261.204 346.495 260.638C345.929 260.073 345.269 259.799 344.515 259.818C343.78 259.837 343.091 260.167 342.45 260.808C341.809 261.449 341.475 262.142 341.446 262.887C341.437 263.632 341.715 264.287 342.281 264.853ZM349.752 275.945C348.951 275.143 348.395 274.257 348.084 273.286C347.791 272.315 347.763 271.353 347.999 270.401C348.235 269.449 348.73 268.596 349.484 267.841C350.238 267.087 351.091 266.592 352.044 266.356C352.996 266.121 353.953 266.154 354.914 266.455C355.895 266.757 356.786 267.309 357.587 268.11C358.389 268.911 358.935 269.798 359.228 270.769C359.529 271.73 359.562 272.687 359.327 273.64C359.091 274.592 358.596 275.445 357.842 276.199C357.088 276.954 356.234 277.449 355.282 277.684C354.33 277.92 353.368 277.892 352.397 277.599C351.435 277.298 350.554 276.746 349.752 275.945ZM351.563 274.135C352.128 274.7 352.779 274.974 353.514 274.955C354.269 274.936 354.966 274.606 355.607 273.965C356.248 273.324 356.574 272.631 356.583 271.886C356.611 271.141 356.343 270.486 355.777 269.92C355.211 269.355 354.551 269.081 353.797 269.1C353.052 269.109 352.359 269.435 351.718 270.076C351.077 270.717 350.747 271.415 350.728 272.169C350.719 272.914 350.997 273.569 351.563 274.135ZM370.008 280.757L362.4 288.366L360.194 286.16L363.022 283.331C362.06 283.011 361.193 282.464 360.42 281.691C359.392 280.663 358.845 279.654 358.779 278.664C358.732 277.674 359.199 276.689 360.179 275.709L362.569 273.319L364.776 275.525L362.527 277.773C362.065 278.235 361.848 278.688 361.876 279.131C361.914 279.583 362.159 280.036 362.612 280.489C363.187 281.064 363.852 281.483 364.606 281.747L367.802 278.551L370.008 280.757ZM372.127 282.876L374.319 285.068L371.349 288.038L374.658 291.347L377.628 288.377L379.834 290.583L372.226 298.192L370.019 295.985L372.862 293.143L369.553 289.834L366.71 292.676L364.518 290.484L372.127 282.876ZM377.788 303.98C376.987 303.179 376.431 302.293 376.119 301.322C375.827 300.351 375.799 299.389 376.035 298.437C376.27 297.484 376.765 296.631 377.519 295.877C378.274 295.123 379.127 294.628 380.079 294.392C381.031 294.156 381.988 294.189 382.95 294.491C383.931 294.793 384.822 295.344 385.623 296.146C386.424 296.947 386.971 297.833 387.263 298.804C387.565 299.766 387.598 300.723 387.362 301.675C387.127 302.628 386.632 303.481 385.877 304.235C385.123 304.989 384.27 305.484 383.318 305.72C382.365 305.956 381.404 305.927 380.433 305.635C379.471 305.333 378.59 304.782 377.788 303.98ZM379.598 302.17C380.164 302.736 380.815 303.009 381.55 302.991C382.304 302.972 383.002 302.642 383.643 302.001C384.284 301.359 384.609 300.666 384.619 299.922C384.647 299.177 384.378 298.522 383.813 297.956C383.247 297.39 382.587 297.117 381.833 297.136C381.088 297.145 380.395 297.47 379.754 298.111C379.113 298.753 378.783 299.45 378.764 300.205C378.755 300.949 379.033 301.605 379.598 302.17ZM393.165 299.332L395.795 301.962L388.894 307.987L387.14 306.233L393.165 299.332ZM384.467 310.66C384.081 310.273 383.878 309.825 383.859 309.316C383.859 308.807 384.038 308.373 384.397 308.015C384.755 307.657 385.179 307.487 385.67 307.506C386.169 307.515 386.617 307.718 387.013 308.114C387.409 308.51 387.612 308.958 387.621 309.458C387.64 309.948 387.47 310.372 387.112 310.73C386.754 311.089 386.315 311.263 385.797 311.254C385.297 311.244 384.854 311.046 384.467 310.66ZM396.407 322.713C395.38 321.685 394.672 320.535 394.286 319.262C393.909 317.999 393.871 316.745 394.173 315.5C394.493 314.256 395.139 313.148 396.11 312.177C397.081 311.206 398.184 310.564 399.419 310.253C400.673 309.942 401.932 309.975 403.195 310.352C404.468 310.739 405.618 311.446 406.646 312.474C407.674 313.501 408.376 314.647 408.753 315.91C409.13 317.174 409.163 318.432 408.852 319.686C408.551 320.931 407.914 322.038 406.943 323.01C405.972 323.981 404.859 324.622 403.606 324.933C402.361 325.235 401.107 325.197 399.844 324.82C398.58 324.443 397.435 323.74 396.407 322.713ZM398.359 320.761C398.943 321.346 399.603 321.742 400.339 321.949C401.083 322.147 401.828 322.137 402.573 321.921C403.327 321.713 404.011 321.303 404.624 320.69C405.237 320.077 405.647 319.394 405.854 318.64C406.071 317.895 406.076 317.155 405.868 316.419C405.67 315.675 405.279 315.01 404.694 314.425C404.11 313.841 403.445 313.449 402.7 313.252C401.965 313.044 401.22 313.044 400.466 313.252C399.721 313.468 399.042 313.883 398.429 314.496C397.817 315.109 397.402 315.788 397.185 316.532C396.978 317.287 396.973 318.036 397.171 318.781C397.378 319.516 397.774 320.176 398.359 320.761ZM413.79 333.986L412.73 332.926L409.845 335.811L407.667 333.633L410.552 330.748L409.491 329.687L404.994 330.96L402.392 328.358L408.713 326.816L410.17 320.919L412.503 323.252L411.231 327.891L412.319 328.98L415.275 326.024L417.453 328.202L414.497 331.158L415.572 332.233L420.225 330.974L422.558 333.307L416.661 334.764L415.134 341.1L412.517 338.484L413.79 333.986ZM423.889 334.638L426.081 336.83L421.556 341.356L429.786 340.535L431.809 342.558L424.2 350.166L422.008 347.974L426.534 343.449L418.317 344.283L416.281 342.247L423.889 334.638ZM436.659 359.004L433.208 362.455L431.157 360.404L432.798 358.764L427.452 353.418L425.812 355.059L423.761 353.008L427.212 349.557L427.523 349.869C428.004 350.331 428.607 350.378 429.333 350.01C430.059 349.642 430.95 348.978 432.006 348.016L434.735 345.485L441.368 352.117L435.57 357.915L436.659 359.004ZM433.844 350.166C433.043 350.91 432.35 351.481 431.766 351.877C431.19 352.282 430.653 352.49 430.153 352.499L433.364 355.709L437.352 351.721L434.863 349.232L433.844 350.166ZM446.914 357.437C448.093 358.616 448.715 359.804 448.781 361.001C448.856 362.189 448.328 363.348 447.197 364.48L442.855 368.821L440.791 366.757L441.738 365.809C440.616 366.101 439.49 365.682 438.358 364.551C437.774 363.966 437.364 363.358 437.128 362.726C436.902 362.104 436.85 361.505 436.972 360.93C437.095 360.355 437.378 359.846 437.821 359.403C438.528 358.696 439.348 358.403 440.282 358.526C441.224 358.658 442.252 359.28 443.365 360.393L445.118 362.146C445.599 361.666 445.821 361.152 445.783 360.605C445.755 360.049 445.448 359.478 444.864 358.894C444.458 358.488 443.992 358.154 443.464 357.89C442.954 357.626 442.455 357.465 441.965 357.409L442.714 355.075C443.421 355.198 444.142 355.467 444.878 355.881C445.623 356.306 446.301 356.824 446.914 357.437ZM440.395 363.617C440.772 363.994 441.191 364.244 441.653 364.367C442.125 364.48 442.591 364.428 443.053 364.211L443.831 363.433L442.318 361.92C441.413 361.015 440.663 360.859 440.069 361.453C439.787 361.736 439.669 362.071 439.716 362.458C439.782 362.844 440.008 363.231 440.395 363.617ZM455.944 374.358C455.916 374.387 455.704 374.57 455.308 374.91L449.552 369.154C449.184 369.729 449.057 370.347 449.17 371.007C449.283 371.667 449.627 372.284 450.203 372.859C450.599 373.255 451.004 373.548 451.419 373.736C451.852 373.925 452.329 374.024 452.847 374.033L452.748 376.48C451.211 376.583 449.755 375.947 448.378 374.57C447.52 373.713 446.926 372.789 446.596 371.799C446.276 370.799 446.233 369.823 446.469 368.871C446.705 367.919 447.2 367.066 447.954 366.311C448.699 365.567 449.543 365.072 450.485 364.827C451.447 364.581 452.399 364.6 453.342 364.883C454.304 365.166 455.166 365.689 455.93 366.453C456.675 367.198 457.189 368.032 457.472 368.956C457.754 369.88 457.764 370.813 457.5 371.756C457.255 372.699 456.736 373.566 455.944 374.358ZM454.275 368.136C453.776 367.636 453.215 367.358 452.593 367.301C451.97 367.245 451.376 367.424 450.811 367.839L454.558 371.586C454.964 371.03 455.138 370.441 455.082 369.819C455.034 369.187 454.766 368.626 454.275 368.136ZM465.787 380.157L463.214 377.583L457.415 383.381L455.223 381.189L461.022 375.391L458.448 372.817L460.258 371.007L467.598 378.347L465.787 380.157ZM464.355 390.547C463.544 389.736 462.978 388.841 462.658 387.86C462.356 386.88 462.318 385.908 462.545 384.947C462.78 383.995 463.275 383.141 464.03 382.387C464.784 381.633 465.637 381.138 466.589 380.902C467.551 380.676 468.517 380.718 469.488 381.029C470.478 381.341 471.379 381.902 472.19 382.712C472.991 383.514 473.519 384.381 473.773 385.315C474.047 386.248 474.009 387.162 473.66 388.058L471.03 387.266C471.332 386.172 471.11 385.253 470.365 384.508C469.79 383.933 469.125 383.646 468.371 383.646C467.617 383.646 466.915 383.971 466.264 384.622C465.613 385.272 465.288 385.974 465.288 386.729C465.288 387.483 465.576 388.148 466.151 388.723C466.905 389.477 467.824 389.699 468.909 389.387L469.686 392.032C468.81 392.362 467.9 392.395 466.957 392.131C466.024 391.876 465.156 391.349 464.355 390.547ZM483.392 394.141L475.783 401.749L473.818 399.784L475.996 397.606L474.369 395.979L470.749 396.715L468.401 394.367L472.63 393.618C472.309 392.882 472.201 392.18 472.304 391.511C472.427 390.841 472.766 390.228 473.323 389.672C474.218 388.776 475.227 388.409 476.349 388.569C477.49 388.729 478.626 389.375 479.757 390.506L483.392 394.141ZM478.004 392.345C477.532 391.874 477.089 391.6 476.674 391.525C476.269 391.459 475.878 391.614 475.501 391.991C475.123 392.369 474.958 392.76 475.006 393.165C475.072 393.571 475.34 394.009 475.812 394.48L477.466 396.135L479.63 393.971L478.004 392.345ZM494.114 404.636C494.821 405.343 495.297 406.15 495.542 407.055C495.806 407.96 495.806 408.874 495.542 409.798C495.287 410.713 494.769 411.561 493.986 412.344C493.204 413.126 492.35 413.65 491.427 413.914C490.512 414.168 489.597 414.168 488.683 413.914C487.787 413.659 486.986 413.178 486.279 412.471C485.308 411.5 484.85 410.43 484.907 409.261L481.357 412.81L479.151 410.604L489.503 400.252L491.61 402.359L490.734 403.236C491.94 403.123 493.067 403.59 494.114 404.636ZM487.707 410.279C488.273 410.845 488.923 411.118 489.659 411.099C490.413 411.08 491.111 410.75 491.752 410.109C492.393 409.468 492.718 408.775 492.728 408.03C492.756 407.286 492.487 406.63 491.921 406.065C491.356 405.499 490.696 405.226 489.942 405.244C489.206 405.263 488.518 405.593 487.877 406.234C487.236 406.876 486.901 407.568 486.873 408.313C486.863 409.058 487.141 409.713 487.707 410.279ZM495.179 421.371C494.378 420.57 493.821 419.684 493.51 418.713C493.218 417.741 493.19 416.78 493.425 415.828C493.661 414.875 494.156 414.022 494.91 413.268C495.664 412.514 496.518 412.019 497.47 411.783C498.422 411.547 499.379 411.58 500.341 411.882C501.321 412.184 502.212 412.735 503.014 413.536C503.815 414.338 504.362 415.224 504.654 416.195C504.956 417.157 504.989 418.114 504.753 419.066C504.517 420.018 504.022 420.872 503.268 421.626C502.514 422.38 501.661 422.875 500.709 423.111C499.756 423.346 498.795 423.318 497.824 423.026C496.862 422.724 495.98 422.173 495.179 421.371ZM496.989 419.561C497.555 420.127 498.205 420.4 498.941 420.381C499.695 420.362 500.393 420.032 501.034 419.391C501.675 418.75 502 418.057 502.01 417.312C502.038 416.568 501.769 415.912 501.203 415.347C500.638 414.781 499.978 414.508 499.224 414.526C498.479 414.536 497.786 414.861 497.145 415.502C496.504 416.143 496.174 416.841 496.155 417.595C496.145 418.34 496.423 418.995 496.989 419.561ZM504.489 430.681C503.678 429.87 503.112 428.974 502.792 427.994C502.49 427.013 502.452 426.042 502.678 425.081C502.914 424.128 503.409 423.275 504.163 422.521C504.918 421.767 505.771 421.272 506.723 421.036C507.685 420.81 508.651 420.852 509.622 421.163C510.612 421.474 511.513 422.035 512.323 422.846C513.125 423.648 513.653 424.515 513.907 425.448C514.181 426.382 514.143 427.296 513.794 428.192L511.164 427.4C511.465 426.306 511.244 425.387 510.499 424.642C509.924 424.067 509.259 423.78 508.505 423.78C507.751 423.78 507.048 424.105 506.398 424.755C505.747 425.406 505.422 426.108 505.422 426.863C505.422 427.617 505.71 428.282 506.285 428.857C507.039 429.611 507.958 429.832 509.042 429.521L509.82 432.166C508.943 432.496 508.034 432.529 507.091 432.265C506.157 432.01 505.29 431.482 504.489 430.681ZM521.514 435.883L518.94 433.309L513.141 439.107L510.949 436.915L516.748 431.117L514.174 428.543L515.984 426.733L523.324 434.073L521.514 435.883ZM531.277 453.622L527.798 457.101L525.747 455.051L527.416 453.382L520.896 446.862L528.505 439.254L530.697 441.446L524.899 447.244L527.967 450.313L533.766 444.515L535.972 446.721L530.174 452.519L531.277 453.622ZM542.026 460.44C541.998 460.469 541.786 460.652 541.39 460.992L535.634 455.236C535.266 455.811 535.139 456.429 535.252 457.089C535.365 457.749 535.709 458.366 536.284 458.941C536.68 459.337 537.086 459.63 537.501 459.818C537.934 460.007 538.411 460.106 538.929 460.115L538.83 462.562C537.293 462.665 535.837 462.029 534.46 460.652C533.602 459.794 533.008 458.871 532.678 457.881C532.358 456.881 532.315 455.905 532.551 454.953C532.787 454.001 533.282 453.148 534.036 452.393C534.781 451.649 535.625 451.154 536.567 450.909C537.529 450.663 538.481 450.682 539.424 450.965C540.386 451.248 541.248 451.771 542.012 452.535C542.757 453.28 543.271 454.114 543.554 455.038C543.836 455.962 543.846 456.895 543.582 457.838C543.337 458.781 542.818 459.648 542.026 460.44ZM540.357 454.218C539.858 453.718 539.297 453.44 538.675 453.383C538.052 453.327 537.458 453.506 536.893 453.921L540.64 457.668C541.046 457.112 541.22 456.523 541.164 455.901C541.116 455.269 540.848 454.708 540.357 454.218ZM547.55 458.299L549.742 460.491L546.772 463.461L550.081 466.77L553.051 463.8L555.257 466.006L547.649 473.615L545.443 471.409L548.285 468.566L544.976 465.257L542.133 468.099L539.941 465.907L547.55 458.299ZM559.335 465.502L561.965 468.132L555.064 474.157L553.31 472.403L559.335 465.502ZM550.638 476.83C550.251 476.443 550.048 475.995 550.029 475.486C550.029 474.977 550.209 474.544 550.567 474.185C550.925 473.827 551.349 473.657 551.84 473.676C552.339 473.686 552.787 473.888 553.183 474.284C553.579 474.68 553.782 475.128 553.791 475.628C553.81 476.118 553.64 476.542 553.282 476.901C552.924 477.259 552.485 477.433 551.967 477.424C551.467 477.414 551.024 477.216 550.638 476.83Z" fill="#232323"></path> </g> </g> <defs> <filter id="filter0_d_2414_31" x="-17.9838" y="64.436" width="670.689" height="234.879" filterUnits="userSpaceOnUse" color-interpolation-filters="sRGB"> <feFlood flood-opacity="0" result="BackgroundImageFix"></feFlood> <feColorMatrix in="SourceAlpha" type="matrix" values="0 0 0 0 0 0 0 0 0 0 0 0 0 0 0 0 0 0 127 0" result="hardAlpha"></feColorMatrix> <feOffset dy="4"></feOffset> <feGaussianBlur stdDeviation="2"></feGaussianBlur> <feComposite in2="hardAlpha" operator="out"></feComposite> <feColorMatrix type="matrix" values="0 0 0 0 0 0 0 0 0 0 0 0 0 0 0 0 0 0 0.25 0"></feColorMatrix> <feBlend mode="normal" in2="BackgroundImageFix" result="effect1_dropShadow_2414_31"></feBlend> <feBlend mode="normal" in="SourceGraphic" in2="effect1_dropShadow_2414_31" result="shape"></feBlend> </filter> <filter id="filter1_d_2414_31" x="-37" y="-117" width="521.592" height="521.592" filterUnits="userSpaceOnUse" color-interpolation-filters="sRGB"> <feFlood flood-opacity="0" result="BackgroundImageFix"></feFlood> <feColorMatrix in="SourceAlpha" type="matrix" values="0 0 0 0 0 0 0 0 0 0 0 0 0 0 0 0 0 0 127 0" result="hardAlpha"></feColorMatrix> <feOffset dy="4"></feOffset> <feGaussianBlur stdDeviation="2"></feGaussianBlur> <feComposite in2="hardAlpha" operator="out"></feComposite> <feColorMatrix type="matrix" values="0 0 0 0 0 0 0 0 0 0 0 0 0 0 0 0 0 0 0.25 0"></feColorMatrix> <feBlend mode="normal" in2="BackgroundImageFix" result="effect1_dropShadow_2414_31"></feBlend> <feBlend mode="normal" in="SourceGraphic" in2="effect1_dropShadow_2414_31" result="shape"></feBlend> </filter> <clipPath id="clip0_2414_31"> <rect width="618" height="234" rx="20" fill="white"></rect> </clipPath> <clipPath id="clip1_2414_31"> <rect width="671.329" height="55" fill="white" transform="translate(-13.9838 238.189) rotate(-15)"></rect> </clipPath> <clipPath id="clip2_2414_31"> <rect width="671.329" height="55" fill="white" transform="translate(5.89087 -117) rotate(45)"></rect> </clipPath> </defs> </svg> 