<?xml version="1.0" encoding="UTF-8"?> <svg xmlns="http://www.w3.org/2000/svg" width="618" height="170" viewBox="0 0 618 170" fill="none"> <g clip-path="url(#clip0_2414_31)"> <g clip-path="url(#clip1_2414_31)" filter="url(#filter0_d_2414_31)"> <rect width="671.329" height="55" transform="translate(-13.9838 174.189) rotate(-15)" fill="#FFD42A"></rect> <path d="M-160.237 249.391C-161.615 249.761 -162.944 249.799 -164.223 249.507C-165.493 249.198 -166.591 248.602 -167.518 247.719C-168.436 246.819 -169.074 245.699 -169.433 244.36C-169.792 243.02 -169.797 241.738 -169.449 240.513C-169.092 239.271 -168.438 238.206 -167.49 237.317C-166.531 236.411 -165.357 235.772 -163.966 235.4C-162.794 235.086 -161.682 235.009 -160.632 235.169C-159.568 235.326 -158.611 235.704 -157.76 236.304L-159.272 238.697C-160.47 237.886 -161.745 237.662 -163.097 238.024C-163.934 238.248 -164.631 238.635 -165.188 239.185C-165.748 239.721 -166.127 240.368 -166.324 241.125C-166.509 241.879 -166.489 242.674 -166.265 243.511C-166.04 244.348 -165.66 245.047 -165.123 245.607C-164.574 246.164 -163.921 246.541 -163.164 246.738C-162.41 246.923 -161.615 246.903 -160.778 246.679C-159.426 246.316 -158.435 245.478 -157.807 244.164L-155.301 245.481C-155.735 246.439 -156.373 247.252 -157.215 247.919C-158.058 248.587 -159.065 249.077 -160.237 249.391Z" fill="#232323"></path> <path d="M-149.611 234.99C-148.645 234.731 -147.709 234.722 -146.802 234.962C-145.886 235.186 -145.094 235.644 -144.426 236.334C-143.762 237.012 -143.286 237.885 -143 238.954C-142.713 240.023 -142.687 241.024 -142.92 241.956C-143.157 242.875 -143.614 243.667 -144.292 244.332C-144.96 244.98 -145.777 245.434 -146.743 245.693C-148.07 246.048 -149.225 245.909 -150.209 245.276L-148.91 250.125L-151.924 250.932L-155.713 236.791L-152.834 236.02L-152.513 237.217C-152.008 236.116 -151.04 235.373 -149.611 234.99ZM-147.927 243.36C-147.155 243.153 -146.592 242.726 -146.241 242.08C-145.88 241.417 -145.817 240.648 -146.052 239.772C-146.287 238.896 -146.724 238.268 -147.364 237.888C-147.995 237.491 -148.697 237.396 -149.47 237.603C-150.243 237.81 -150.809 238.245 -151.17 238.907C-151.521 239.554 -151.58 240.315 -151.345 241.19C-151.111 242.066 -150.678 242.703 -150.047 243.099C-149.407 243.48 -148.7 243.567 -147.927 243.36Z" fill="#232323"></path> <path d="M-134.585 242.435C-135.68 242.728 -136.726 242.767 -137.722 242.551C-138.709 242.318 -139.556 241.862 -140.263 241.182C-140.97 240.502 -141.461 239.646 -141.737 238.616C-142.013 237.586 -142.016 236.599 -141.744 235.657C-141.472 234.714 -140.964 233.902 -140.222 233.22C-139.471 232.522 -138.548 232.026 -137.453 231.733C-136.358 231.439 -135.317 231.409 -134.33 231.641C-133.347 231.861 -132.501 232.311 -131.794 232.991C-131.088 233.671 -130.596 234.526 -130.32 235.557C-130.044 236.587 -130.042 237.574 -130.314 238.516C-130.586 239.459 -131.091 240.277 -131.83 240.972C-132.572 241.654 -133.491 242.142 -134.585 242.435ZM-135.248 239.962C-134.475 239.755 -133.913 239.329 -133.562 238.682C-133.201 238.02 -133.138 237.25 -133.372 236.375C-133.607 235.499 -134.045 234.871 -134.685 234.49C-135.316 234.093 -136.018 233.998 -136.79 234.205C-137.563 234.412 -138.13 234.847 -138.491 235.51C-138.855 236.16 -138.92 236.922 -138.685 237.798C-138.45 238.674 -138.011 239.309 -137.367 239.702C-136.727 240.083 -136.021 240.169 -135.248 239.962Z" fill="#232323"></path> <path d="M-120.29 227.299L-117.505 237.693L-120.518 238.5L-121.554 234.637C-122.312 235.309 -123.219 235.787 -124.275 236.07C-125.679 236.446 -126.826 236.415 -127.717 235.977C-128.598 235.523 -129.217 234.626 -129.576 233.287L-130.451 230.022L-127.437 229.215L-126.614 232.286C-126.445 232.917 -126.162 233.331 -125.764 233.528C-125.353 233.722 -124.839 233.736 -124.22 233.57C-123.435 233.36 -122.739 232.994 -122.133 232.473L-123.303 228.107L-120.29 227.299Z" fill="#232323"></path> <path d="M-117.396 226.524L-114.402 225.722L-113.314 229.779L-108.794 228.567L-109.881 224.51L-106.867 223.703L-104.082 234.096L-107.096 234.904L-108.137 231.021L-112.657 232.232L-111.617 236.115L-114.611 236.917L-117.396 226.524Z" fill="#232323"></path> <path d="M-96.2878 232.173C-97.3825 232.467 -98.4281 232.505 -99.4247 232.289C-100.412 232.057 -101.259 231.6 -101.966 230.92C-102.672 230.24 -103.164 229.385 -103.44 228.354C-103.716 227.324 -103.718 226.338 -103.446 225.395C-103.174 224.453 -102.667 223.64 -101.925 222.958C-101.173 222.26 -100.25 221.764 -99.1555 221.471C-98.0608 221.177 -97.0199 221.147 -96.0327 221.379C-95.0491 221.599 -94.2038 222.049 -93.497 222.729C-92.7902 223.409 -92.2988 224.265 -92.0227 225.295C-91.7466 226.325 -91.7446 227.312 -92.0166 228.254C-92.2886 229.197 -92.7939 230.015 -93.5326 230.71C-94.2747 231.392 -95.1931 231.88 -96.2878 232.173ZM-96.9504 229.701C-96.1776 229.493 -95.6156 229.067 -95.2642 228.42C-94.9034 227.758 -94.8404 226.989 -95.075 226.113C-95.3097 225.237 -95.7472 224.609 -96.3875 224.228C-97.0184 223.831 -97.7202 223.737 -98.4929 223.944C-99.2657 224.151 -99.8324 224.585 -100.193 225.248C-100.557 225.898 -100.622 226.661 -100.388 227.536C-100.153 228.412 -99.7137 229.047 -99.07 229.44C-98.4296 229.821 -97.7231 229.908 -96.9504 229.701Z" fill="#232323"></path> <path d="M-92.6252 216.532L-89.032 215.57L-87.2652 224.559L-89.6607 225.2L-92.6252 216.532ZM-87.1637 229.728C-87.6918 229.87 -88.181 229.822 -88.6313 229.583C-89.0722 229.329 -89.3582 228.957 -89.4893 228.467C-89.6205 227.978 -89.5553 227.526 -89.2939 227.111C-89.0359 226.683 -88.6364 226.396 -88.0955 226.251C-87.5546 226.106 -87.0654 226.155 -86.6279 226.396C-86.1939 226.625 -85.9113 226.984 -85.7802 227.474C-85.6491 227.963 -85.7172 228.43 -85.9846 228.874C-86.2427 229.302 -86.6357 229.587 -87.1637 229.728Z" fill="#232323"></path> <path d="M-70.7558 225.415C-72.1596 225.791 -73.5093 225.828 -74.8048 225.527C-76.0875 225.222 -77.1923 224.627 -78.1192 223.744C-79.0367 222.844 -79.6732 221.731 -80.0286 220.404C-80.3841 219.078 -80.3877 217.802 -80.0396 216.577C-79.6821 215.335 -79.0242 214.261 -78.0659 213.356C-77.0948 212.447 -75.9073 211.804 -74.5035 211.428C-73.0997 211.052 -71.7564 211.017 -70.4738 211.322C-69.1911 211.627 -68.0846 212.227 -67.1542 213.124C-66.2273 214.007 -65.5861 215.112 -65.2306 216.439C-64.8752 217.766 -64.8762 219.05 -65.2338 220.291C-65.5947 221.52 -66.2544 222.587 -67.2126 223.492C-68.1709 224.398 -69.352 225.039 -70.7558 225.415ZM-71.4701 222.749C-70.6716 222.535 -69.9987 222.161 -69.4514 221.628C-68.9075 221.082 -68.5433 220.432 -68.3587 219.679C-68.1612 218.922 -68.1746 218.125 -68.3989 217.288C-68.6232 216.451 -69.0101 215.754 -69.5596 215.197C-70.0962 214.637 -70.7348 214.263 -71.4753 214.075C-72.2194 213.874 -72.9906 213.88 -73.7891 214.094C-74.5876 214.308 -75.2588 214.688 -75.8027 215.234C-76.35 215.767 -76.7224 216.412 -76.9199 217.169C-77.1045 217.923 -77.0847 218.718 -76.8604 219.555C-76.6361 220.392 -76.2556 221.091 -75.719 221.651C-75.1695 222.208 -74.5228 222.587 -73.7787 222.788C-73.0382 222.976 -72.2686 222.963 -71.4701 222.749Z" fill="#232323"></path> <path d="M-52.3009 215.997L-53.7498 216.386L-52.6938 220.327L-55.6689 221.124L-56.7248 217.183L-58.1737 217.571L-59.3201 222.102L-62.8747 223.055L-61.0489 216.809L-65.4277 212.599L-62.2402 211.745L-58.8594 215.167L-57.3719 214.768L-58.4538 210.73L-55.4787 209.933L-54.3968 213.971L-52.9286 213.577L-51.6923 208.919L-48.5047 208.065L-50.1919 213.9L-45.4687 218.391L-49.0426 219.348L-52.3009 215.997Z" fill="#232323"></path> <path d="M-46.6871 207.578L-43.6927 206.775L-42.0363 212.957L-38.6313 205.419L-35.8687 204.679L-33.0839 215.072L-36.0782 215.875L-37.7347 209.693L-41.1204 217.226L-43.9022 217.971L-46.6871 207.578Z" fill="#232323"></path> <path d="M-19.2003 208.702L-17.9373 213.416L-20.7385 214.166L-21.3389 211.925L-28.6413 213.882L-28.0409 216.123L-30.8421 216.873L-32.1051 212.16L-31.6801 212.046C-31.0396 211.86 -30.6971 211.361 -30.6525 210.549C-30.608 209.736 -30.7381 208.632 -31.043 207.237L-31.8706 203.608L-22.8102 201.18L-20.6879 209.1L-19.2003 208.702ZM-28.2621 206.72C-28.0178 207.786 -27.8703 208.671 -27.8196 209.376C-27.7561 210.076 -27.8452 210.645 -28.0869 211.083L-23.7016 209.908L-25.1613 204.46L-28.5613 205.371L-28.2621 206.72Z" fill="#232323"></path> <path d="M-15.43 199.037C-13.8201 198.605 -12.4802 198.66 -11.4102 199.202C-10.3437 199.731 -9.60342 200.768 -9.18931 202.313L-7.60016 208.244L-10.4207 209L-10.7675 207.705C-11.0753 208.823 -12.002 209.589 -13.5475 210.003C-14.346 210.217 -15.0777 210.268 -15.7426 210.156C-16.3946 210.041 -16.939 209.787 -17.3758 209.393C-17.8126 208.999 -18.1121 208.5 -18.2743 207.895C-18.5331 206.929 -18.3761 206.072 -17.8032 205.325C-17.2175 204.575 -16.1648 203.996 -14.6451 203.589L-12.2496 202.947C-12.4256 202.29 -12.7598 201.841 -13.2522 201.6C-13.7481 201.347 -14.3953 201.327 -15.1938 201.541C-15.7476 201.689 -16.2708 201.926 -16.7634 202.251C-17.2466 202.56 -17.6352 202.913 -17.9293 203.309L-19.5754 201.493C-19.1157 200.942 -18.5224 200.452 -17.7954 200.022C-17.0556 199.59 -16.2671 199.261 -15.43 199.037ZM-13.3376 207.773C-12.8224 207.635 -12.3963 207.396 -12.0591 207.058C-11.7255 206.706 -11.537 206.276 -11.4938 205.767L-11.7785 204.705L-13.8456 205.259C-15.082 205.59 -15.5915 206.161 -15.3741 206.973C-15.2706 207.359 -15.0396 207.628 -14.6813 207.781C-14.3135 207.917 -13.8656 207.914 -13.3376 207.773Z" fill="#232323"></path> <path d="M3.7393 199.677C3.74965 199.716 3.80279 199.991 3.89874 200.504L-3.9639 202.611C-3.64969 203.217 -3.17851 203.636 -2.5504 203.868C-1.92228 204.1 -1.21542 204.111 -0.429798 203.9C0.11112 203.755 0.566949 203.55 0.937666 203.285C1.31781 203.004 1.64159 202.641 1.90903 202.197L3.97834 203.506C3.29977 204.888 2.02031 205.832 0.139974 206.336C-1.03202 206.65 -2.12917 206.702 -3.15148 206.493C-4.17725 206.271 -5.04352 205.82 -5.75033 205.139C-6.45714 204.459 -6.94859 203.604 -7.22467 202.573C-7.49729 201.556 -7.50404 200.578 -7.24492 199.639C-6.97638 198.683 -6.48393 197.868 -5.76758 197.193C-5.0418 196.502 -4.15731 196.016 -3.11411 195.737C-2.09666 195.464 -1.11715 195.436 -0.17556 195.653C0.766028 195.87 1.57907 196.329 2.26358 197.029C2.95751 197.712 3.44942 198.595 3.7393 199.677ZM-2.48397 198.011C-3.16656 198.194 -3.68791 198.541 -4.04803 199.051C-4.40814 199.562 -4.55 200.166 -4.47358 200.863L0.645828 199.491C0.366799 198.862 -0.0563061 198.417 -0.623478 198.154C-1.1941 197.879 -1.81426 197.832 -2.48397 198.011Z" fill="#232323"></path> <path d="M13.6827 194.052L10.1667 194.994L12.289 202.915L9.29464 203.717L7.17232 195.796L3.65635 196.738L2.99378 194.266L13.0201 191.579L13.6827 194.052Z" fill="#232323"></path> <path d="M21.9645 200.488C20.8569 200.784 19.7984 200.827 18.7889 200.614C17.7889 200.385 16.9291 199.932 16.2094 199.255C15.5026 198.575 15.0111 197.72 14.7351 196.689C14.459 195.659 14.4569 194.673 14.7289 193.73C15.0138 192.784 15.5337 191.968 16.2887 191.283C17.0532 190.581 17.9892 190.082 19.0968 189.785C20.1915 189.492 21.2066 189.468 22.1422 189.715C23.0873 189.944 23.8604 190.434 24.4617 191.184L22.4606 193.066C21.6643 192.258 20.7575 191.991 19.74 192.263C18.9544 192.474 18.373 192.906 17.9959 193.559C17.6188 194.212 17.5493 194.983 17.7874 195.872C18.0255 196.76 18.4712 197.393 19.1244 197.77C19.7775 198.147 20.497 198.231 21.2826 198.02C22.3129 197.744 22.9644 197.059 23.2371 195.964L25.9162 196.613C25.7636 197.537 25.3373 198.342 24.6373 199.026C23.9501 199.707 23.0592 200.194 21.9645 200.488Z" fill="#232323"></path> <path d="M34.5954 185.798L37.3803 196.191L34.695 196.911L33.8979 193.936L31.6762 194.531L30.5029 198.034L27.296 198.893L28.7612 194.857C27.964 194.767 27.3015 194.509 26.7737 194.085C26.2552 193.644 25.8942 193.044 25.6906 192.284C25.3628 191.06 25.5487 190.003 26.2485 189.111C26.9577 188.203 28.0851 187.542 29.6305 187.128L34.5954 185.798ZM30.3459 189.566C29.7019 189.739 29.2436 189.986 28.9709 190.307C28.711 190.626 28.6501 191.042 28.7881 191.557C28.9262 192.072 29.1825 192.411 29.5572 192.573C29.9413 192.718 30.4553 192.705 31.0992 192.532L33.3595 191.927L32.5675 188.971L30.3459 189.566Z" fill="#232323"></path> <path d="M49.0454 181.761C50.0114 181.502 50.9475 181.492 51.8539 181.733C52.7698 181.957 53.5618 182.414 54.2299 183.104C54.8947 183.782 55.3702 184.656 55.6567 185.724C55.9431 186.793 55.9696 187.794 55.7363 188.726C55.4995 189.645 55.0422 190.437 54.3645 191.102C53.6962 191.751 52.8791 192.204 51.9131 192.463C50.5866 192.818 49.4313 192.679 48.4471 192.046L49.7464 196.895L46.7327 197.702L42.9436 183.561L45.822 182.79L46.143 183.988C46.6484 182.886 47.6159 182.144 49.0454 181.761ZM50.729 190.13C51.5017 189.923 52.0638 189.496 52.4151 188.85C52.7759 188.187 52.839 187.418 52.6043 186.542C52.3697 185.667 51.9322 185.038 51.2919 184.658C50.661 184.261 49.9592 184.166 49.1864 184.373C48.4137 184.58 47.8469 185.015 47.4861 185.678C47.1348 186.324 47.0764 187.085 47.3111 187.961C47.5457 188.836 47.9785 189.473 48.6094 189.87C49.2497 190.25 49.9562 190.337 50.729 190.13Z" fill="#232323"></path> <path d="M64.071 189.205C62.9763 189.499 61.9306 189.537 60.9341 189.321C59.947 189.089 59.1 188.632 58.3932 187.952C57.6864 187.272 57.1949 186.417 56.9188 185.386C56.6428 184.356 56.6407 183.37 56.9127 182.427C57.1847 181.484 57.6918 180.672 58.4339 179.99C59.1854 179.292 60.1086 178.796 61.2033 178.503C62.298 178.209 63.3389 178.179 64.326 178.411C65.3097 178.631 66.155 179.081 66.8618 179.761C67.5686 180.441 68.06 181.297 68.3361 182.327C68.6122 183.357 68.6142 184.344 68.3422 185.286C68.0702 186.229 67.5649 187.047 66.8262 187.742C66.0841 188.424 65.1657 188.912 64.071 189.205ZM63.4084 186.733C64.1811 186.525 64.7432 186.099 65.0946 185.452C65.4554 184.79 65.5184 184.021 65.2838 183.145C65.0491 182.269 64.6116 181.641 63.9713 181.26C63.3404 180.863 62.6386 180.769 61.8658 180.976C61.0931 181.183 60.5263 181.617 60.1655 182.28C59.8013 182.93 59.7365 183.693 59.9712 184.568C60.2058 185.444 60.6451 186.079 61.2888 186.472C61.9291 186.853 62.6357 186.94 63.4084 186.733Z" fill="#232323"></path> <path d="M76.7883 185.798C75.6807 186.094 74.6222 186.137 73.6128 185.924C72.6128 185.695 71.7529 185.242 71.0332 184.565C70.3264 183.885 69.835 183.03 69.5589 181.999C69.2828 180.969 69.2808 179.983 69.5528 179.04C69.8377 178.094 70.3576 177.278 71.1126 176.593C71.877 175.891 72.813 175.392 73.9206 175.095C75.0153 174.802 76.0305 174.778 76.9661 175.025C77.9111 175.254 78.6843 175.744 79.2855 176.494L77.2844 178.376C76.4881 177.568 75.5813 177.301 74.5639 177.573C73.7782 177.784 73.1969 178.216 72.8197 178.869C72.4426 179.522 72.3731 180.293 72.6112 181.182C72.8493 182.07 73.295 182.703 73.9482 183.08C74.6014 183.457 75.3208 183.541 76.1064 183.33C77.1367 183.054 77.7882 182.369 78.0609 181.274L80.7401 181.923C80.5875 182.847 80.1611 183.652 79.4611 184.336C78.7739 185.017 77.883 185.504 76.7883 185.798Z" fill="#232323"></path> <path d="M89.8059 173.655L86.2899 174.597L88.4123 182.517L85.4179 183.32L83.2956 175.399L79.7796 176.341L79.117 173.868L89.1434 171.182L89.8059 173.655Z" fill="#232323"></path> <path d="M110.05 174.069L111.324 178.822L108.522 179.572L107.912 177.293L99.0058 179.679L96.2209 169.286L99.2152 168.483L101.338 176.404L105.53 175.281L103.407 167.36L106.421 166.552L108.543 174.473L110.05 174.069Z" fill="#232323"></path> <path d="M121.329 168.169C121.34 168.208 121.393 168.483 121.489 168.996L113.626 171.103C113.94 171.709 114.412 172.128 115.04 172.36C115.668 172.592 116.375 172.602 117.16 172.392C117.701 172.247 118.157 172.042 118.528 171.777C118.908 171.496 119.232 171.133 119.499 170.688L121.569 171.997C120.89 173.38 119.61 174.324 117.73 174.827C116.558 175.141 115.461 175.194 114.439 174.985C113.413 174.763 112.547 174.311 111.84 173.631C111.133 172.951 110.642 172.096 110.365 171.065C110.093 170.048 110.086 169.07 110.345 168.131C110.614 167.175 111.106 166.36 111.823 165.685C112.548 164.993 113.433 164.508 114.476 164.228C115.493 163.956 116.473 163.928 117.415 164.145C118.356 164.362 119.169 164.821 119.854 165.521C120.548 166.204 121.04 167.087 121.329 168.169ZM115.106 166.503C114.424 166.686 113.902 167.032 113.542 167.543C113.182 168.054 113.04 168.658 113.117 169.355L118.236 167.983C117.957 167.354 117.534 166.908 116.967 166.646C116.396 166.371 115.776 166.323 115.106 166.503Z" fill="#232323"></path> <path d="M122.237 162.315L125.231 161.512L126.318 165.569L130.839 164.358L129.752 160.301L132.765 159.493L135.55 169.887L132.537 170.694L131.496 166.811L126.976 168.023L128.016 171.906L125.022 172.708L122.237 162.315Z" fill="#232323"></path> <path d="M134.367 155.71L137.961 154.747L139.727 163.736L137.332 164.378L134.367 155.71ZM139.829 168.906C139.301 169.048 138.812 168.999 138.361 168.761C137.92 168.506 137.634 168.134 137.503 167.645C137.372 167.156 137.437 166.703 137.699 166.288C137.957 165.86 138.356 165.574 138.897 165.429C139.438 165.284 139.927 165.332 140.365 165.574C140.799 165.803 141.081 166.162 141.212 166.651C141.344 167.141 141.275 167.607 141.008 168.052C140.75 168.48 140.357 168.765 139.829 168.906Z" fill="#232323"></path> <path d="M156.179 164.608C154.801 164.977 153.472 165.016 152.193 164.723C150.923 164.415 149.825 163.819 148.898 162.935C147.98 162.035 147.342 160.916 146.983 159.576C146.624 158.237 146.619 156.955 146.967 155.73C147.325 154.488 147.978 153.423 148.927 152.533C149.885 151.628 151.06 150.989 152.45 150.616C153.622 150.302 154.734 150.225 155.784 150.385C156.848 150.542 157.805 150.921 158.656 151.521L157.144 153.914C155.946 153.103 154.672 152.878 153.319 153.241C152.482 153.465 151.785 153.852 151.229 154.401C150.668 154.938 150.289 155.585 150.092 156.342C149.907 157.095 149.927 157.89 150.152 158.727C150.376 159.565 150.756 160.263 151.293 160.824C151.842 161.38 152.496 161.757 153.252 161.955C154.006 162.139 154.801 162.12 155.638 161.895C156.991 161.533 157.981 160.695 158.609 159.381L161.115 160.697C160.681 161.655 160.043 162.468 159.201 163.136C158.358 163.803 157.351 164.294 156.179 164.608Z" fill="#232323"></path> <path d="M166.805 150.207C167.771 149.948 168.707 149.939 169.614 150.179C170.53 150.403 171.322 150.86 171.99 151.551C172.655 152.228 173.13 153.102 173.417 154.171C173.703 155.24 173.73 156.24 173.496 157.172C173.259 158.092 172.802 158.884 172.124 159.548C171.456 160.197 170.639 160.65 169.673 160.909C168.347 161.265 167.191 161.126 166.207 160.492L167.506 165.341L164.493 166.149L160.704 152.007L163.582 151.236L163.903 152.434C164.408 151.332 165.376 150.59 166.805 150.207ZM168.489 158.576C169.262 158.369 169.824 157.943 170.175 157.296C170.536 156.634 170.599 155.864 170.364 154.989C170.13 154.113 169.692 153.485 169.052 153.104C168.421 152.707 167.719 152.612 166.946 152.819C166.174 153.026 165.607 153.461 165.246 154.124C164.895 154.77 164.836 155.531 165.071 156.407C165.306 157.283 165.738 157.919 166.369 158.316C167.01 158.697 167.716 158.783 168.489 158.576Z" fill="#232323"></path> <path d="M181.831 157.652C180.736 157.945 179.691 157.984 178.694 157.767C177.707 157.535 176.86 157.079 176.153 156.398C175.446 155.718 174.955 154.863 174.679 153.833C174.403 152.802 174.401 151.816 174.673 150.873C174.945 149.931 175.452 149.119 176.194 148.437C176.945 147.738 177.869 147.242 178.963 146.949C180.058 146.656 181.099 146.625 182.086 146.858C183.07 147.077 183.915 147.527 184.622 148.207C185.329 148.888 185.82 149.743 186.096 150.773C186.372 151.804 186.374 152.79 186.102 153.733C185.83 154.675 185.325 155.494 184.586 156.189C183.844 156.871 182.926 157.358 181.831 157.652ZM181.168 155.179C181.941 154.972 182.503 154.545 182.855 153.899C183.215 153.236 183.278 152.467 183.044 151.591C182.809 150.715 182.372 150.087 181.731 149.707C181.1 149.31 180.399 149.215 179.626 149.422C178.853 149.629 178.286 150.064 177.925 150.726C177.561 151.376 177.496 152.139 177.731 153.015C177.966 153.89 178.405 154.525 179.049 154.919C179.689 155.299 180.396 155.386 181.168 155.179Z" fill="#232323"></path> <path d="M196.127 142.516L198.911 152.909L195.898 153.717L194.863 149.853C194.104 150.526 193.197 151.003 192.141 151.286C190.737 151.662 189.59 151.632 188.7 151.194C187.819 150.74 187.199 149.843 186.84 148.503L185.965 145.239L188.979 144.431L189.802 147.503C189.971 148.134 190.254 148.548 190.652 148.745C191.063 148.939 191.578 148.953 192.196 148.787C192.981 148.576 193.677 148.211 194.283 147.689L193.113 143.323L196.127 142.516Z" fill="#232323"></path> <path d="M199.02 141.741L202.015 140.938L203.102 144.995L207.622 143.784L206.535 139.727L209.549 138.919L212.334 149.313L209.32 150.12L208.28 146.237L203.759 147.449L204.8 151.332L201.805 152.134L199.02 141.741Z" fill="#232323"></path> <path d="M220.128 147.39C219.034 147.683 217.988 147.722 216.991 147.506C216.004 147.273 215.157 146.817 214.451 146.137C213.744 145.456 213.252 144.601 212.976 143.571C212.7 142.54 212.698 141.554 212.97 140.612C213.242 139.669 213.749 138.857 214.491 138.175C215.243 137.477 216.166 136.981 217.261 136.687C218.355 136.394 219.396 136.364 220.383 136.596C221.367 136.816 222.212 137.265 222.919 137.946C223.626 138.626 224.117 139.481 224.393 140.512C224.67 141.542 224.672 142.528 224.4 143.471C224.128 144.413 223.622 145.232 222.884 145.927C222.142 146.609 221.223 147.096 220.128 147.39ZM219.466 144.917C220.239 144.71 220.801 144.283 221.152 143.637C221.513 142.974 221.576 142.205 221.341 141.329C221.107 140.454 220.669 139.825 220.029 139.445C219.398 139.048 218.696 138.953 217.923 139.16C217.151 139.367 216.584 139.802 216.223 140.465C215.859 141.114 215.794 141.877 216.029 142.753C216.263 143.629 216.702 144.263 217.346 144.657C217.987 145.037 218.693 145.124 219.466 144.917Z" fill="#232323"></path> <path d="M223.791 131.749L227.384 130.786L229.151 139.775L226.755 140.417L223.791 131.749ZM229.252 144.945C228.724 145.087 228.235 145.038 227.785 144.8C227.344 144.545 227.058 144.173 226.927 143.684C226.796 143.195 226.861 142.742 227.122 142.327C227.38 141.899 227.78 141.613 228.321 141.468C228.862 141.323 229.351 141.371 229.788 141.613C230.222 141.842 230.505 142.201 230.636 142.69C230.767 143.18 230.699 143.646 230.432 144.091C230.174 144.519 229.78 144.804 229.252 144.945Z" fill="#232323"></path> <path d="M245.66 140.631C244.257 141.008 242.907 141.045 241.611 140.743C240.329 140.438 239.224 139.844 238.297 138.96C237.379 138.06 236.743 136.947 236.388 135.621C236.032 134.294 236.028 133.018 236.377 131.793C236.734 130.552 237.392 129.478 238.35 128.572C239.321 127.663 240.509 127.021 241.913 126.645C243.317 126.269 244.66 126.233 245.942 126.538C247.225 126.843 248.332 127.444 249.262 128.34C250.189 129.224 250.83 130.329 251.186 131.656C251.541 132.982 251.54 134.266 251.182 135.508C250.821 136.736 250.162 137.803 249.204 138.709C248.245 139.614 247.064 140.255 245.66 140.631ZM244.946 137.965C245.745 137.751 246.417 137.378 246.965 136.845C247.509 136.299 247.873 135.649 248.058 134.895C248.255 134.139 248.242 133.342 248.017 132.504C247.793 131.667 247.406 130.97 246.857 130.414C246.32 129.853 245.681 129.479 244.941 129.291C244.197 129.09 243.426 129.097 242.627 129.311C241.829 129.525 241.157 129.905 240.613 130.451C240.066 130.984 239.694 131.629 239.496 132.386C239.312 133.139 239.331 133.935 239.556 134.772C239.78 135.609 240.161 136.307 240.697 136.868C241.247 137.424 241.893 137.803 242.637 138.004C243.378 138.192 244.148 138.179 244.946 137.965Z" fill="#232323"></path> <path d="M264.115 131.214L262.666 131.602L263.722 135.543L260.747 136.34L259.691 132.399L258.242 132.788L257.096 137.319L253.542 138.271L255.367 132.026L250.988 127.816L254.176 126.962L257.557 130.383L259.044 129.985L257.962 125.947L260.937 125.15L262.019 129.187L263.488 128.794L264.724 124.135L267.911 123.281L266.224 129.117L270.948 133.607L267.374 134.565L264.115 131.214Z" fill="#232323"></path> <path d="M269.729 122.794L272.723 121.992L274.38 128.174L277.785 120.636L280.547 119.895L283.332 130.289L280.338 131.091L278.682 124.909L275.296 132.442L272.514 133.188L269.729 122.794Z" fill="#232323"></path> <path d="M297.216 123.918L298.479 128.632L295.678 129.383L295.077 127.142L287.775 129.098L288.375 131.339L285.574 132.09L284.311 127.376L284.736 127.262C285.377 127.077 285.719 126.578 285.764 125.765C285.808 124.953 285.678 123.849 285.373 122.454L284.546 118.824L293.606 116.396L295.728 124.317L297.216 123.918ZM288.154 121.936C288.398 123.003 288.546 123.888 288.597 124.592C288.66 125.293 288.571 125.862 288.329 126.299L292.715 125.124L291.255 119.677L287.855 120.588L288.154 121.936Z" fill="#232323"></path> <path d="M300.986 114.253C302.596 113.822 303.936 113.877 305.006 114.418C306.072 114.947 306.813 115.984 307.227 117.53L308.816 123.46L305.996 124.216L305.649 122.922C305.341 124.04 304.414 124.806 302.869 125.22C302.07 125.434 301.338 125.485 300.674 125.373C300.022 125.258 299.477 125.003 299.04 124.61C298.604 124.216 298.304 123.716 298.142 123.111C297.883 122.145 298.04 121.289 298.613 120.542C299.199 119.791 300.251 119.212 301.771 118.805L304.167 118.163C303.991 117.506 303.656 117.058 303.164 116.817C302.668 116.563 302.021 116.543 301.222 116.757C300.669 116.906 300.145 117.143 299.653 117.468C299.17 117.777 298.781 118.129 298.487 118.526L296.841 116.71C297.3 116.159 297.894 115.668 298.621 115.239C299.361 114.806 300.149 114.477 300.986 114.253ZM303.079 122.989C303.594 122.851 304.02 122.613 304.357 122.274C304.691 121.922 304.879 121.492 304.922 120.984L304.638 119.921L302.571 120.475C301.334 120.806 300.825 121.378 301.042 122.189C301.146 122.575 301.377 122.845 301.735 122.997C302.103 123.133 302.551 123.131 303.079 122.989Z" fill="#232323"></path> <path d="M320.155 114.894C320.166 114.932 320.219 115.208 320.315 115.721L312.452 117.827C312.767 118.433 313.238 118.852 313.866 119.084C314.494 119.316 315.201 119.327 315.986 119.117C316.527 118.972 316.983 118.767 317.354 118.502C317.734 118.22 318.058 117.858 318.325 117.413L320.395 118.722C319.716 120.105 318.437 121.048 316.556 121.552C315.384 121.866 314.287 121.919 313.265 121.709C312.239 121.487 311.373 121.036 310.666 120.356C309.959 119.676 309.468 118.82 309.192 117.79C308.919 116.773 308.912 115.794 309.171 114.855C309.44 113.9 309.932 113.085 310.649 112.41C311.374 111.718 312.259 111.233 313.302 110.953C314.32 110.681 315.299 110.653 316.241 110.87C317.182 111.087 317.995 111.545 318.68 112.245C319.374 112.929 319.866 113.812 320.155 114.894ZM313.932 113.228C313.25 113.41 312.728 113.757 312.368 114.268C312.008 114.778 311.866 115.382 311.943 116.08L317.062 114.708C316.783 114.079 316.36 113.633 315.793 113.371C315.222 113.096 314.602 113.048 313.932 113.228Z" fill="#232323"></path> <path d="M330.099 109.268L326.583 110.211L328.705 118.131L325.711 118.933L323.588 111.013L320.073 111.955L319.41 109.482L329.436 106.796L330.099 109.268Z" fill="#232323"></path> <path d="M338.381 115.704C337.273 116.001 336.215 116.043 335.205 115.83C334.205 115.601 333.345 115.149 332.626 114.472C331.919 113.792 331.427 112.936 331.151 111.906C330.875 110.876 330.873 109.889 331.145 108.947C331.43 108.001 331.95 107.185 332.705 106.5C333.469 105.798 334.405 105.299 335.513 105.002C336.608 104.708 337.623 104.685 338.558 104.931C339.503 105.161 340.277 105.651 340.878 106.401L338.877 108.283C338.08 107.475 337.174 107.207 336.156 107.48C335.371 107.69 334.789 108.122 334.412 108.775C334.035 109.428 333.965 110.199 334.204 111.088C334.442 111.977 334.887 112.61 335.541 112.987C336.194 113.364 336.913 113.447 337.699 113.237C338.729 112.961 339.381 112.275 339.653 111.181L342.332 111.829C342.18 112.754 341.753 113.558 341.053 114.243C340.366 114.924 339.475 115.411 338.381 115.704Z" fill="#232323"></path> <path d="M351.012 101.015L353.796 111.408L351.111 112.127L350.314 109.152L348.092 109.748L346.919 113.251L343.712 114.11L345.177 110.073C344.38 109.983 343.718 109.726 343.19 109.301C342.671 108.861 342.31 108.26 342.107 107.5C341.779 106.277 341.965 105.219 342.665 104.328C343.374 103.42 344.501 102.759 346.047 102.345L351.012 101.015ZM346.762 104.783C346.118 104.955 345.66 105.202 345.387 105.524C345.127 105.842 345.066 106.259 345.204 106.774C345.342 107.289 345.599 107.628 345.973 107.789C346.357 107.935 346.871 107.921 347.515 107.749L349.776 107.143L348.984 104.188L346.762 104.783Z" fill="#232323"></path> <path d="M365.462 96.977C366.428 96.7182 367.364 96.709 368.27 96.9492C369.186 97.1731 369.978 97.6304 370.646 98.321C371.311 98.9987 371.786 99.8721 372.073 100.941C372.359 102.01 372.386 103.011 372.152 103.943C371.916 104.862 371.458 105.654 370.781 106.319C370.112 106.967 369.295 107.421 368.329 107.68C367.003 108.035 365.847 107.896 364.863 107.262L366.162 112.111L363.149 112.919L359.36 98.7777L362.238 98.0064L362.559 99.2042C363.065 98.1025 364.032 97.3601 365.462 96.977ZM367.145 105.347C367.918 105.139 368.48 104.713 368.831 104.066C369.192 103.404 369.255 102.635 369.02 101.759C368.786 100.883 368.348 100.255 367.708 99.8744C367.077 99.4775 366.375 99.3825 365.603 99.5896C364.83 99.7966 364.263 100.231 363.902 100.894C363.551 101.54 363.493 102.301 363.727 103.177C363.962 104.053 364.395 104.689 365.026 105.086C365.666 105.467 366.372 105.554 367.145 105.347Z" fill="#232323"></path> <path d="M380.487 104.422C379.392 104.715 378.347 104.754 377.35 104.538C376.363 104.305 375.516 103.849 374.809 103.169C374.103 102.488 373.611 101.633 373.335 100.603C373.059 99.5725 373.057 98.5861 373.329 97.6436C373.601 96.701 374.108 95.8888 374.85 95.2068C375.602 94.5085 376.525 94.0127 377.619 93.7194C378.714 93.426 379.755 93.3956 380.742 93.628C381.726 93.8476 382.571 94.2975 383.278 94.9777C383.985 95.658 384.476 96.5132 384.752 97.5436C385.028 98.5739 385.03 99.5603 384.758 100.503C384.486 101.445 383.981 102.264 383.242 102.959C382.5 103.641 381.582 104.129 380.487 104.422ZM379.825 101.949C380.597 101.742 381.159 101.315 381.511 100.669C381.872 100.006 381.935 99.2372 381.7 98.3614C381.465 97.4857 381.028 96.8575 380.387 96.4769C379.757 96.08 379.055 95.9851 378.282 96.1921C377.509 96.3992 376.942 96.834 376.582 97.4967C376.217 98.1464 376.153 98.9092 376.387 99.7849C376.622 100.661 377.061 101.295 377.705 101.689C378.345 102.069 379.052 102.156 379.825 101.949Z" fill="#232323"></path> <path d="M393.204 101.014C392.097 101.311 391.038 101.353 390.029 101.14C389.029 100.911 388.169 100.459 387.449 99.7818C386.743 99.1015 386.251 98.2462 385.975 97.2159C385.699 96.1856 385.697 95.1992 385.969 94.2567C386.254 93.3107 386.774 92.495 387.529 91.8096C388.293 91.1078 389.229 90.6086 390.337 90.3118C391.431 90.0184 392.447 89.9949 393.382 90.2411C394.327 90.471 395.1 90.961 395.702 91.7109L393.701 93.5929C392.904 92.7848 391.997 92.5171 390.98 92.7897C390.194 93.0002 389.613 93.4321 389.236 94.0853C388.859 94.7385 388.789 95.5094 389.027 96.398C389.266 97.2867 389.711 97.9196 390.364 98.2967C391.018 98.6738 391.737 98.7572 392.523 98.5466C393.553 98.2706 394.204 97.5853 394.477 96.4907L397.156 97.1394C397.004 98.0637 396.577 98.8682 395.877 99.5527C395.19 100.234 394.299 100.721 393.204 101.014Z" fill="#232323"></path> <path d="M406.222 88.8713L402.706 89.8134L404.828 97.734L401.834 98.5363L399.712 90.6157L396.196 91.5578L395.533 89.085L405.559 86.3985L406.222 88.8713Z" fill="#232323"></path> <path d="M426.466 89.2858L427.74 94.0381L424.939 94.7887L424.328 92.5091L415.422 94.8954L412.637 84.5021L415.631 83.6997L417.754 91.6203L421.946 90.4971L419.824 82.5765L422.837 81.769L424.96 89.6895L426.466 89.2858Z" fill="#232323"></path> <path d="M437.746 83.3854C437.756 83.4241 437.809 83.6997 437.905 84.2124L430.042 86.3191C430.357 86.9251 430.828 87.3441 431.456 87.5761C432.084 87.8081 432.791 87.8189 433.577 87.6084C434.117 87.4634 434.573 87.2585 434.944 86.9935C435.324 86.7122 435.648 86.3494 435.915 85.905L437.985 87.214C437.306 88.5968 436.027 89.5401 434.146 90.0439C432.974 90.3579 431.877 90.4104 430.855 90.2012C429.829 89.9791 428.963 89.5279 428.256 88.8477C427.549 88.1674 427.058 87.3121 426.782 86.2818C426.509 85.2644 426.502 84.2861 426.761 83.3471C427.03 82.3917 427.522 81.5764 428.239 80.9014C428.964 80.21 429.849 79.7245 430.892 79.445C431.91 79.1724 432.889 79.1446 433.831 79.3616C434.772 79.5786 435.585 80.0371 436.27 80.7372C436.964 81.4209 437.456 82.3036 437.746 83.3854ZM431.522 81.7194C430.84 81.9023 430.318 82.249 429.958 82.7596C429.598 83.2702 429.456 83.8742 429.533 84.5715L434.652 83.1998C434.373 82.5705 433.95 82.1249 433.383 81.8627C432.812 81.5877 432.192 81.5399 431.522 81.7194Z" fill="#232323"></path> <path d="M438.653 77.5312L441.647 76.7288L442.734 80.7857L447.255 79.5744L446.168 75.5175L449.181 74.71L451.966 85.1034L448.953 85.9109L447.912 82.0279L443.392 83.2392L444.432 87.1222L441.438 87.9245L438.653 77.5312Z" fill="#232323"></path> <path d="M450.783 70.9265L454.377 69.9637L456.144 78.9527L453.748 79.5946L450.783 70.9265ZM456.245 84.1226C455.717 84.2641 455.228 84.2157 454.777 83.9775C454.337 83.7229 454.051 83.3509 453.919 82.8615C453.788 82.3721 453.853 81.9198 454.115 81.5047C454.373 81.0767 454.772 80.7902 455.313 80.6452C455.854 80.5003 456.343 80.5487 456.781 80.7903C457.215 81.0191 457.497 81.3782 457.629 81.8677C457.76 82.3571 457.692 82.8239 457.424 83.2683C457.166 83.6963 456.773 83.9811 456.245 84.1226Z" fill="#232323"></path> <path d="M472.595 79.8244C471.217 80.1937 469.888 80.2322 468.609 79.94C467.339 79.6315 466.241 79.0354 465.314 78.1519C464.397 77.252 463.758 76.1324 463.399 74.793C463.041 73.4535 463.035 72.1713 463.383 70.9461C463.741 69.7046 464.394 68.6392 465.343 67.75C466.301 66.8445 467.476 66.2053 468.867 65.8326C470.039 65.5186 471.15 65.4417 472.2 65.6019C473.264 65.7587 474.221 66.1371 475.072 66.7373L473.56 69.1303C472.363 68.3192 471.088 68.0949 469.735 68.4572C468.898 68.6815 468.201 69.0684 467.645 69.6179C467.084 70.1545 466.706 70.8013 466.508 71.5582C466.324 72.3116 466.343 73.1069 466.568 73.944C466.792 74.7812 467.172 75.4799 467.709 76.0401C468.259 76.5968 468.912 76.9739 469.669 77.1714C470.422 77.3561 471.217 77.3362 472.055 77.1119C473.407 76.7495 474.397 75.9114 475.025 74.5974L477.531 75.9136C477.098 76.8718 476.46 77.6846 475.617 78.3521C474.774 79.0196 473.767 79.5104 472.595 79.8244Z" fill="#232323"></path> <path d="M483.222 65.4234C484.187 65.1645 485.124 65.1553 486.03 65.3955C486.946 65.6195 487.738 66.0767 488.406 66.7673C489.071 67.445 489.546 68.3184 489.833 69.3873C490.119 70.4563 490.146 71.4568 489.912 72.389C489.676 73.3083 489.218 74.1003 488.541 74.765C487.872 75.4134 487.055 75.867 486.089 76.1258C484.763 76.4813 483.607 76.3422 482.623 75.7087L483.922 80.5577L480.909 81.3652L477.12 67.224L479.998 66.4527L480.319 67.6505C480.824 66.5488 481.792 65.8064 483.222 65.4234ZM484.905 73.7928C485.678 73.5858 486.24 73.1591 486.591 72.5128C486.952 71.8502 487.015 71.081 486.78 70.2052C486.546 69.3294 486.108 68.7013 485.468 68.3207C484.837 67.9238 484.135 67.8289 483.363 68.0359C482.59 68.243 482.023 68.6778 481.662 69.3404C481.311 69.9867 481.252 70.7478 481.487 71.6235C481.722 72.4993 482.155 73.1356 482.785 73.5325C483.426 73.9131 484.132 73.9999 484.905 73.7928Z" fill="#232323"></path> <path d="M498.247 72.8682C497.152 73.1615 496.107 73.2001 495.11 72.984C494.123 72.7516 493.276 72.2952 492.569 71.615C491.862 70.9347 491.371 70.0795 491.095 69.0491C490.819 68.0188 490.817 67.0324 491.089 66.0899C491.361 65.1474 491.868 64.3351 492.61 63.6531C493.362 62.9548 494.285 62.459 495.379 62.1657C496.474 61.8724 497.515 61.8419 498.502 62.0743C499.486 62.2939 500.331 62.7438 501.038 63.424C501.745 64.1043 502.236 64.9596 502.512 65.9899C502.788 67.0202 502.79 68.0066 502.518 68.9491C502.246 69.8917 501.741 70.7103 501.002 71.4052C500.26 72.0872 499.342 72.5748 498.247 72.8682ZM497.584 70.3954C498.357 70.1883 498.919 69.7616 499.271 69.1154C499.631 68.4527 499.695 67.6835 499.46 66.8077C499.225 65.932 498.788 65.3038 498.147 64.9232C497.517 64.5263 496.815 64.4314 496.042 64.6385C495.269 64.8455 494.702 65.2804 494.342 65.943C493.977 66.5927 493.913 67.3555 494.147 68.2313C494.382 69.107 494.821 69.7416 495.465 70.1351C496.105 70.5157 496.812 70.6024 497.584 70.3954Z" fill="#232323"></path> <path d="M512.543 57.7324L515.328 68.1258L512.314 68.9333L511.279 65.0696C510.52 65.7422 509.613 66.2199 508.557 66.5029C507.153 66.879 506.006 66.8482 505.116 66.4104C504.235 65.9562 503.615 65.0595 503.256 63.72L502.381 60.4552L505.395 59.6477L506.218 62.7193C506.387 63.3504 506.671 63.7645 507.068 63.9615C507.479 64.1551 507.994 64.1691 508.612 64.0035C509.397 63.793 510.093 63.4271 510.699 62.9059L509.529 58.5399L512.543 57.7324Z" fill="#232323"></path> <path d="M515.436 56.9571L518.431 56.1547L519.518 60.2116L524.038 59.0003L522.951 54.9434L525.965 54.1359L528.75 64.5293L525.736 65.3368L524.696 61.4538L520.175 62.6651L521.216 66.5481L518.221 67.3504L515.436 56.9571Z" fill="#232323"></path> <path d="M536.545 62.6064C535.45 62.8997 534.404 62.9383 533.408 62.7222C532.42 62.4898 531.574 62.0334 530.867 61.3532C530.16 60.673 529.668 59.8177 529.392 58.7874C529.116 57.757 529.114 56.7706 529.386 55.8281C529.658 54.8856 530.165 54.0734 530.907 53.3914C531.659 52.6931 532.582 52.1973 533.677 51.9039C534.772 51.6106 535.812 51.5801 536.8 51.8126C537.783 52.0321 538.629 52.482 539.335 53.1623C540.042 53.8425 540.534 54.6978 540.81 55.7281C541.086 56.7584 541.088 57.7449 540.816 58.6874C540.544 59.6299 540.038 60.4486 539.3 61.1434C538.558 61.8254 537.639 62.3131 536.545 62.6064ZM535.882 60.1336C536.655 59.9266 537.217 59.4999 537.568 58.8536C537.929 58.191 537.992 57.4218 537.757 56.546C537.523 55.6702 537.085 55.042 536.445 54.6615C535.814 54.2646 535.112 54.1696 534.339 54.3767C533.567 54.5838 533 55.0186 532.639 55.6812C532.275 56.331 532.21 57.0937 532.445 57.9695C532.679 58.8453 533.119 59.4799 533.762 59.8733C534.403 60.2539 535.109 60.3407 535.882 60.1336Z" fill="#232323"></path> <path d="M540.207 46.9655L543.8 46.0027L545.567 54.9917L543.172 55.6336L540.207 46.9655ZM545.669 60.1616C545.141 60.3031 544.651 60.2547 544.201 60.0165C543.76 59.7619 543.474 59.3899 543.343 58.9005C543.212 58.4111 543.277 57.9589 543.538 57.5437C543.797 57.1157 544.196 56.8292 544.737 56.6842C545.278 56.5393 545.767 56.5877 546.204 56.8294C546.638 57.0582 546.921 57.4173 547.052 57.9067C547.183 58.3961 547.115 58.863 546.848 59.3073C546.59 59.7353 546.197 60.0201 545.669 60.1616Z" fill="#232323"></path> <path d="M562.077 55.8479C560.673 56.2241 559.323 56.2613 558.028 55.9597C556.745 55.6546 555.64 55.0603 554.713 54.1768C553.796 53.2769 553.159 52.1637 552.804 50.8372C552.448 49.5106 552.445 48.2348 552.793 47.0096C553.15 45.7681 553.808 44.6946 554.766 43.789C555.738 42.88 556.925 42.2375 558.329 41.8613C559.733 41.4852 561.076 41.4496 562.359 41.7547C563.641 42.0598 564.748 42.6605 565.678 43.5569C566.605 44.4405 567.246 45.5455 567.602 46.8721C567.957 48.1986 567.956 49.4826 567.599 50.7241C567.238 51.9527 566.578 53.0198 565.62 53.9254C564.661 54.8309 563.48 55.4718 562.077 55.8479ZM561.362 53.182C562.161 52.968 562.834 52.5945 563.381 52.0613C563.925 51.5153 564.289 50.8655 564.474 50.1121C564.671 49.3552 564.658 48.5581 564.433 47.721C564.209 46.8839 563.822 46.1869 563.273 45.6302C562.736 45.07 562.098 44.6958 561.357 44.5078C560.613 44.3068 559.842 44.3133 559.043 44.5273C558.245 44.7412 557.574 45.1212 557.03 45.6673C556.482 46.2004 556.11 46.8455 555.912 47.6024C555.728 48.3558 555.748 49.1511 555.972 49.9882C556.196 50.8254 556.577 51.5241 557.113 52.0843C557.663 52.641 558.31 53.0199 559.054 53.2208C559.794 53.4089 560.564 53.3959 561.362 53.182Z" fill="#232323"></path> <path d="M580.531 46.4306L579.083 46.8188L580.139 50.7598L577.163 51.5569L576.108 47.6159L574.659 48.0042L573.512 52.5353L569.958 53.4877L571.783 47.2424L567.405 43.0322L570.592 42.1781L573.973 45.5997L575.46 45.2011L574.379 41.1636L577.354 40.3664L578.435 44.404L579.904 44.0106L581.14 39.3518L584.328 38.4977L582.64 44.3332L587.364 48.8238L583.79 49.7814L580.531 46.4306Z" fill="#232323"></path> <path d="M586.145 38.0107L589.14 37.2084L590.796 43.3903L594.201 35.8521L596.964 35.1119L599.749 45.5053L596.754 46.3076L595.098 40.1257L591.712 47.6587L588.93 48.4041L586.145 38.0107Z" fill="#232323"></path> <path d="M613.632 39.1349L614.895 43.8486L612.094 44.5992L611.493 42.3583L604.191 44.3149L604.791 46.5559L601.99 47.3064L600.727 42.5927L601.152 42.4788C601.793 42.2934 602.135 41.7944 602.18 40.9819C602.224 40.1693 602.094 39.0654 601.789 37.6701L600.962 34.0406L610.022 31.6129L612.144 39.5335L613.632 39.1349ZM604.57 37.1527C604.815 38.2192 604.962 39.1045 605.013 39.8087C605.076 40.5095 604.987 41.0786 604.745 41.516L609.131 40.341L607.671 34.8932L604.271 35.8042L604.57 37.1527Z" fill="#232323"></path> <path d="M617.402 29.4697C619.012 29.0384 620.352 29.0934 621.422 29.635C622.489 30.1636 623.229 31.2007 623.643 32.7462L625.232 38.677L622.412 39.4327L622.065 38.1384C621.757 39.2561 620.83 40.0221 619.285 40.4362C618.486 40.6501 617.755 40.7013 617.09 40.5895C616.438 40.4744 615.893 40.2199 615.457 39.8262C615.02 39.4325 614.72 38.933 614.558 38.3277C614.299 37.3618 614.456 36.5053 615.029 35.7583C615.615 35.0078 616.668 34.4289 618.187 34.0217L620.583 33.3798C620.407 32.723 620.073 32.2742 619.58 32.0334C619.084 31.7798 618.437 31.76 617.639 31.9739C617.085 32.1223 616.562 32.3591 616.069 32.6844C615.586 32.9933 615.197 33.3459 614.903 33.7422L613.257 31.9264C613.717 31.3753 614.31 30.885 615.037 30.4555C615.777 30.0226 616.565 29.694 617.402 29.4697ZM619.495 38.2059C620.01 38.0678 620.436 37.8294 620.773 37.4906C621.107 37.1389 621.295 36.7088 621.338 36.2003L621.054 35.1378L618.987 35.6917C617.75 36.023 617.241 36.5943 617.458 37.4057C617.562 37.792 617.793 38.0615 618.151 38.2139C618.519 38.35 618.967 38.3473 619.495 38.2059Z" fill="#232323"></path> <path d="M636.572 30.1102C636.582 30.1488 636.635 30.4244 636.731 30.9371L628.868 33.0439C629.183 33.6499 629.654 34.0689 630.282 34.3009C630.91 34.5329 631.617 34.5436 632.403 34.3331C632.943 34.1882 633.399 33.9832 633.77 33.7182C634.15 33.4369 634.474 33.0741 634.741 32.6297L636.811 33.9388C636.132 35.3215 634.853 36.2648 632.972 36.7686C631.8 37.0827 630.703 37.1351 629.681 36.9259C628.655 36.7038 627.789 36.2526 627.082 35.5724C626.375 34.8922 625.884 34.0369 625.608 33.0066C625.335 31.9891 625.328 31.0109 625.587 30.0718C625.856 29.1164 626.348 28.3012 627.065 27.6261C627.791 26.9347 628.675 26.4492 629.718 26.1697C630.736 25.8971 631.715 25.8693 632.657 26.0863C633.598 26.3033 634.411 26.7619 635.096 27.4619C635.79 28.1456 636.282 29.0283 636.572 30.1102ZM630.348 28.4441C629.666 28.627 629.144 28.9738 628.784 29.4844C628.424 29.995 628.282 30.5989 628.359 31.2963L633.478 29.9245C633.199 29.2953 632.776 28.8496 632.209 28.5875C631.638 28.3124 631.018 28.2647 630.348 28.4441Z" fill="#232323"></path> <path d="M646.515 24.485L642.999 25.4271L645.121 33.3477L642.127 34.15L640.005 26.2294L636.489 27.1715L635.826 24.6988L645.852 22.0122L646.515 24.485Z" fill="#232323"></path> <path d="M654.797 30.9208C653.689 31.2176 652.631 31.2596 651.621 31.047C650.621 30.818 649.761 30.3651 649.042 29.6883C648.335 29.0081 647.843 28.1528 647.567 27.1225C647.291 26.0921 647.289 25.1057 647.561 24.1632C647.846 23.2172 648.366 22.4016 649.121 21.7161C649.886 21.0144 650.821 20.5151 651.929 20.2183C653.024 19.925 654.039 19.9014 654.975 20.1477C655.92 20.3776 656.693 20.8675 657.294 21.6175L655.293 23.4995C654.497 22.6914 653.59 22.4237 652.572 22.6963C651.787 22.9068 651.205 23.3386 650.828 23.9918C650.451 24.645 650.382 25.4159 650.62 26.3046C650.858 27.1932 651.304 27.8261 651.957 28.2033C652.61 28.5804 653.329 28.6637 654.115 28.4532C655.145 28.1771 655.797 27.4918 656.069 26.3973L658.749 27.046C658.596 27.9703 658.17 28.7747 657.47 29.4592C656.782 30.1403 655.892 30.6275 654.797 30.9208Z" fill="#232323"></path> <path d="M667.428 16.2311L670.213 26.6245L667.527 27.344L666.73 24.3689L664.509 24.9642L663.335 28.4673L660.128 29.3266L661.594 25.2898C660.796 25.1997 660.134 24.9424 659.606 24.5179C659.088 24.0771 658.727 23.4767 658.523 22.7168C658.195 21.4933 658.381 20.4358 659.081 19.5443C659.79 18.6365 660.917 17.9756 662.463 17.5615L667.428 16.2311ZM663.178 19.9994C662.534 20.1719 662.076 20.419 661.803 20.7405C661.543 21.0586 661.482 21.4752 661.62 21.9904C661.759 22.5055 662.015 22.8441 662.39 23.006C662.774 23.1515 663.288 23.138 663.932 22.9655L666.192 22.3598L665.4 19.4041L663.178 19.9994Z" fill="#232323"></path> <path d="M681.878 12.1936C682.844 11.9348 683.78 11.9255 684.686 12.1658C685.602 12.3897 686.394 12.8469 687.062 13.5375C687.727 14.2153 688.203 15.0886 688.489 16.1576C688.775 17.2265 688.802 18.2271 688.569 19.1592C688.332 20.0785 687.875 20.8705 687.197 21.5352C686.529 22.1836 685.711 22.6372 684.746 22.896C683.419 23.2515 682.264 23.1125 681.279 22.4789L682.579 27.3279L679.565 28.1354L675.776 13.9942L678.654 13.2229L678.975 14.4207C679.481 13.319 680.448 12.5766 681.878 12.1936ZM683.561 20.5631C684.334 20.356 684.896 19.9293 685.247 19.283C685.608 18.6204 685.671 17.8512 685.437 16.9754C685.202 16.0997 684.765 15.4715 684.124 15.0909C683.493 14.694 682.791 14.5991 682.019 14.8061C681.246 15.0132 680.679 15.448 680.318 16.1106C679.967 16.7569 679.909 17.518 680.143 18.3938C680.378 19.2695 680.811 19.9059 681.442 20.3028C682.082 20.6833 682.789 20.7701 683.561 20.5631Z" fill="#232323"></path> <path d="M696.903 19.6384C695.809 19.9317 694.763 19.9703 693.766 19.7542C692.779 19.5218 691.932 19.0654 691.226 18.3852C690.519 17.705 690.027 16.8497 689.751 15.8194C689.475 14.789 689.473 13.8026 689.745 12.8601C690.017 11.9176 690.524 11.1053 691.266 10.4234C692.018 9.72507 692.941 9.22925 694.036 8.93592C695.13 8.64259 696.171 8.61213 697.158 8.84457C698.142 9.06412 698.987 9.51402 699.694 10.1943C700.401 10.8745 700.892 11.7298 701.168 12.7601C701.445 13.7904 701.447 14.7769 701.175 15.7194C700.903 16.6619 700.397 17.4806 699.659 18.1754C698.916 18.8574 697.998 19.3451 696.903 19.6384ZM696.241 17.1656C697.013 16.9586 697.576 16.5319 697.927 15.8856C698.288 15.223 698.351 14.4537 698.116 13.578C697.881 12.7022 697.444 12.074 696.804 11.6935C696.173 11.2966 695.471 11.2016 694.698 11.4087C693.925 11.6157 693.359 12.0506 692.998 12.7132C692.634 13.363 692.569 14.1257 692.804 15.0015C693.038 15.8773 693.477 16.5119 694.121 16.9053C694.761 17.2859 695.468 17.3727 696.241 17.1656Z" fill="#232323"></path> <path d="M709.621 16.2308C708.513 16.5276 707.455 16.5696 706.445 16.357C705.445 16.128 704.585 15.6751 703.866 14.9983C703.159 14.3181 702.667 13.4628 702.391 12.4325C702.115 11.4021 702.113 10.4157 702.385 9.47321C702.67 8.52725 703.19 7.71155 703.945 7.02612C704.709 6.32436 705.645 5.8251 706.753 5.52832C707.848 5.23499 708.863 5.21144 709.798 5.45768C710.743 5.68758 711.517 6.17751 712.118 6.92745L710.117 8.80949C709.321 8.00138 708.414 7.73365 707.396 8.00627C706.611 8.21678 706.029 8.64862 705.652 9.30182C705.275 9.95501 705.205 10.7259 705.444 11.6146C705.682 12.5032 706.127 13.1361 706.781 13.5133C707.434 13.8904 708.153 13.9737 708.939 13.7632C709.969 13.4871 710.621 12.8018 710.893 11.7073L713.572 12.356C713.42 13.2803 712.993 14.0847 712.293 14.7692C711.606 15.4503 710.715 15.9375 709.621 16.2308Z" fill="#232323"></path> <path d="M722.638 4.08782L719.122 5.02991L721.245 12.9505L718.25 13.7528L716.128 5.83225L712.612 6.77436L711.949 4.30159L721.976 1.61505L722.638 4.08782Z" fill="#232323"></path> <path d="M742.883 4.50233L744.156 9.25469L741.355 10.0053L740.744 7.72568L731.838 10.112L729.053 -0.281376L732.048 -1.08371L734.17 6.83688L738.362 5.7136L736.24 -2.20699L739.253 -3.0145L741.376 4.90609L742.883 4.50233Z" fill="#232323"></path> <path d="M754.162 -1.39801C754.172 -1.35937 754.225 -1.08374 754.321 -0.571101L746.459 1.53569C746.773 2.14168 747.244 2.56068 747.872 2.79269C748.5 3.02469 749.207 3.03543 749.993 2.82492C750.534 2.67998 750.989 2.47503 751.36 2.21005C751.74 1.92875 752.064 1.56592 752.332 1.12156L754.401 2.43058C753.722 3.81332 752.443 4.75661 750.562 5.26045C749.39 5.57448 748.293 5.6269 747.271 5.4177C746.245 5.19562 745.379 4.74446 744.672 4.06421C743.965 3.38397 743.474 2.52869 743.198 1.49837C742.925 0.480929 742.918 -0.497321 743.178 -1.43638C743.446 -2.39177 743.939 -3.20701 744.655 -3.88208C745.381 -4.57349 746.265 -5.05895 747.308 -5.33848C748.326 -5.6111 749.305 -5.63889 750.247 -5.42187C751.188 -5.20484 752.002 -4.74631 752.686 -4.04629C753.38 -3.3626 753.872 -2.47984 754.162 -1.39801ZM747.939 -3.06407C747.256 -2.88118 746.735 -2.53442 746.374 -2.02381C746.014 -1.51321 745.872 -0.909249 745.949 -0.211933L751.068 -1.58369C750.789 -2.21291 750.366 -2.65859 749.799 -2.92072C749.228 -3.19574 748.608 -3.24352 747.939 -3.06407Z" fill="#232323"></path> <path d="M755.069 -7.2523L758.063 -8.05464L759.15 -3.99775L763.671 -5.20903L762.584 -9.26592L765.598 -10.0734L768.383 0.319926L765.369 1.12744L764.328 -2.75558L759.808 -1.54429L760.848 2.33873L757.854 3.14106L755.069 -7.2523Z" fill="#232323"></path> <path d="M767.2 -13.857L770.793 -14.8198L772.56 -5.83077L770.164 -5.18889L767.2 -13.857ZM772.661 -0.660892C772.133 -0.519404 771.644 -0.567774 771.194 -0.806002C770.753 -1.06056 770.467 -1.43253 770.336 -1.92193C770.204 -2.41134 770.27 -2.86362 770.531 -3.27877C770.789 -3.7068 771.189 -3.99329 771.729 -4.13823C772.27 -4.28316 772.76 -4.23479 773.197 -3.99312C773.631 -3.76431 773.914 -3.40521 774.045 -2.9158C774.176 -2.4264 774.108 -1.95952 773.84 -1.51516C773.582 -1.08713 773.189 -0.80238 772.661 -0.660892Z" fill="#232323"></path> </g> </g> <defs> <filter id="filter0_d_2414_31" x="-17.9838" y="0.436035" width="670.689" height="234.879" filterUnits="userSpaceOnUse" color-interpolation-filters="sRGB"> <feFlood flood-opacity="0" result="BackgroundImageFix"></feFlood> <feColorMatrix in="SourceAlpha" type="matrix" values="0 0 0 0 0 0 0 0 0 0 0 0 0 0 0 0 0 0 127 0" result="hardAlpha"></feColorMatrix> <feOffset dy="4"></feOffset> <feGaussianBlur stdDeviation="2"></feGaussianBlur> <feComposite in2="hardAlpha" operator="out"></feComposite> <feColorMatrix type="matrix" values="0 0 0 0 0 0 0 0 0 0 0 0 0 0 0 0 0 0 0.25 0"></feColorMatrix> <feBlend mode="normal" in2="BackgroundImageFix" result="effect1_dropShadow_2414_31"></feBlend> <feBlend mode="normal" in="SourceGraphic" in2="effect1_dropShadow_2414_31" result="shape"></feBlend> </filter> <clipPath id="clip0_2414_31"> <rect width="618" height="170" fill="white"></rect> </clipPath> <clipPath id="clip1_2414_31"> <rect width="671.329" height="55" fill="white" transform="translate(-13.9838 174.189) rotate(-15)"></rect> </clipPath> </defs> </svg> 