<?xml version="1.0" encoding="UTF-8"?>
<!DOCTYPE svg PUBLIC "-//W3C//DTD SVG 1.1//EN" "http://www.w3.org/Graphics/SVG/1.1/DTD/svg11.dtd">
<svg xmlns="http://www.w3.org/2000/svg" version="1.1" width="102px" height="100px" style="shape-rendering:geometricPrecision; text-rendering:geometricPrecision; image-rendering:optimizeQuality; fill-rule:evenodd; clip-rule:evenodd" xmlns:xlink="http://www.w3.org/1999/xlink">
<g><path style="opacity:1" fill="#49c8d9" d="M 98.5,0.5 C 99.8001,2.22299 100.467,4.38965 100.5,7C 100.167,9.16667 99.8333,11.3333 99.5,13.5C 86.9221,19.7055 74.4221,26.0389 62,32.5C 57.912,30.2058 53.7453,28.0391 49.5,26C 65.8946,17.4706 82.2279,8.97059 98.5,0.5 Z"/></g>
<g><path style="opacity:1" fill="#4cc9da" d="M 98.5,16.5 C 99.8001,18.223 100.467,20.3897 100.5,23C 100.167,25.1667 99.8333,27.3333 99.5,29.5C 92.2552,33.039 85.0885,36.7056 78,40.5C 73.912,38.2058 69.7453,36.0391 65.5,34C 76.5615,28.1377 87.5615,22.3044 98.5,16.5 Z"/></g>
<g><path style="opacity:1" fill="#627983" d="M 1.5,65.5 C 0.518362,62.0381 0.185029,58.3714 0.5,54.5C 5.85803,51.4012 11.358,48.4012 17,45.5C 17.3333,38.8333 17.6667,32.1667 18,25.5C 21.5453,27.0222 25.0453,28.6888 28.5,30.5C 29.3214,33.4465 29.8214,36.4465 30,39.5C 36.8523,35.3173 44.019,32.1506 51.5,30C 67.6228,37.5613 83.6228,45.3946 99.5,53.5C 100.833,57.8333 100.833,62.1667 99.5,66.5C 83.2843,58.2254 66.951,50.2254 50.5,42.5C 34.2706,50.4487 17.9373,58.1154 1.5,65.5 Z"/></g>
<g><path style="opacity:1" fill="#4cc9da" d="M 98.5,32.5 C 99.8001,34.223 100.467,36.3897 100.5,39C 101.335,43.9976 99.3351,46.8309 94.5,47.5C 90.1717,45.6696 85.8384,43.8363 81.5,42C 87.229,38.8057 92.8956,35.639 98.5,32.5 Z"/></g>
<g><path style="opacity:0.153" fill="#ffe1ef" d="M 51.5,46.5 C 50.5184,49.9619 50.185,53.6286 50.5,57.5C 49.1905,53.6493 49.1905,49.6493 50.5,45.5C 51.1067,45.6236 51.44,45.9569 51.5,46.5 Z"/></g>
<g><path style="opacity:1" fill="#fb588c" d="M 51.5,46.5 C 67.7215,53.61 83.7215,61.2767 99.5,69.5C 100.661,73.7953 100.828,78.1287 100,82.5C 83.2369,74.5355 66.7369,66.2021 50.5,57.5C 50.185,53.6286 50.5184,49.9619 51.5,46.5 Z"/></g>
<g><path style="opacity:0.216" fill="#e5e9ee" d="M -0.5,54.5 C -0.166667,54.5 0.166667,54.5 0.5,54.5C 0.185029,58.3714 0.518362,62.0381 1.5,65.5C 1.15829,66.3382 0.491622,66.6716 -0.5,66.5C -0.5,62.5 -0.5,58.5 -0.5,54.5 Z"/></g>
<g><path style="opacity:0.153" fill="#ffe1ef" d="M 51.5,62.5 C 50.5184,65.9619 50.185,69.6286 50.5,73.5C 49.1905,69.6493 49.1905,65.6493 50.5,61.5C 51.1067,61.6236 51.44,61.9569 51.5,62.5 Z"/></g>
<g><path style="opacity:1" fill="#fb588c" d="M 51.5,62.5 C 67.7106,69.6043 83.7106,77.271 99.5,85.5C 100.661,89.7953 100.828,94.1287 100,98.5C 83.2369,90.5355 66.7369,82.2021 50.5,73.5C 50.185,69.6286 50.5184,65.9619 51.5,62.5 Z"/></g>
<g><path style="opacity:0.227" fill="#e5eaea" d="M 9.5,65.5 C 10.209,64.596 11.209,64.2627 12.5,64.5C 12.8322,75.8529 12.4988,87.1862 11.5,98.5C 10.8933,98.3764 10.56,98.0431 10.5,97.5C 11.1661,92.3441 11.4994,87.0108 11.5,81.5C 11.4949,75.7891 10.8282,70.4558 9.5,65.5 Z"/></g>
<g><path style="opacity:1" fill="#617883" d="M 9.5,65.5 C 10.8282,70.4558 11.4949,75.7891 11.5,81.5C 11.4994,87.0108 11.1661,92.3441 10.5,97.5C 6.70986,96.1049 3.04319,94.4383 -0.5,92.5C -0.5,84.8333 -0.5,77.1667 -0.5,69.5C 2.83333,68.1667 6.16667,66.8333 9.5,65.5 Z"/></g>
</svg>
